# Alias OBJ Model File
# Exported from SketchUp, (c) 2000-2012 Trimble Navigation Limited
# File units = meters

mtllib Salle.mtl

g Mesh1 Ground1 Model

usemtl FrontColor
v 50 0.19 -50
vt 393.701 0.393701
vn 1 0 -0
v 50 0.19 50
vt 0 0.393701
v 50 -0.01 50
vt 0 0
v 50 -0.01 -50
vt 393.701 0
f 1/1/1 2/2/1 3/3/1 4/4/1 

vn 0 1 -0
vt 393.701 393.701
v -50 0.19 -50
vt 0 393.701
v -50 0.19 50
f 2/4/2 1/5/2 5/6/2 6/3/2 

vn 0 0 -1
vt -393.701 0.393701
vt -393.701 0
v -50 -0.01 -50
f 5/2/3 1/7/3 4/8/3 7/3/3 

vt -393.701 393.701
vn 0 -1 -0
v -50 -0.01 50
f 4/9/4 3/8/4 8/3/4 7/6/4 

vn 0 0 1
f 2/1/5 6/2/5 8/3/5 3/4/5 

vn -1 0 -0
f 6/2/6 5/7/6 7/8/6 8/3/6 

g Mesh2 Ground1 Model

l 2 1

l 2 3

l 6 2

l 6 8

l 5 6

l 5 7

l 1 5

l 1 4

l 3 4

l 8 3

l 7 8

l 4 7

g Mesh3 Wall_Base1 Model

v 50 0.19 -50
vn 9.65894e-16 7.47369e-16 -1
v 49.8 0.19 -50
vt 0.787402 -3.48171e-47
v 49.8 31.1 -50
vt 0.787402 60.8465
v 50 31.1 -50
vt 3.36312e-45 60.8465
f 9/3/7 10/10/7 11/11/7 12/12/7 

v 50 0.19 50
vn -0 -1 -0
v 49.8 0.19 50
vt -0.787402 393.701
vt -0.787402 0
f 13/6/8 14/13/8 10/14/8 9/3/8 

vt -0.787402 7.35599e-13
vn -9.65894e-16 -3.73684e-15 1
vt -4.65863e-29 7.35599e-13
v 50 31.1 50
vt -4.65863e-29 60.8465
v 49.8 31.1 50
vt -0.787402 60.8465
f 14/15/9 13/16/9 15/17/9 16/18/9 

vt 0.787402 393.701
vt 0 2.84217e-14
vt 0.787402 2.84217e-14
f 16/19/2 15/6/2 12/20/2 11/21/2 

vt -9.31725e-32 0
vn -1 0 -9.65894e-16
vt 393.701 60.8465
vt 2.84217e-14 60.8465
f 10/22/10 14/4/10 16/23/10 11/24/10 

g Mesh4 Wall_Base1 Model

l 10 9

l 10 11

l 14 10

l 14 16

l 13 14

l 9 13

l 9 12

l 11 12

l 16 11

l 15 16

l 12 15

l 13 15

g Mesh5 Wall_Base2 Model

v -50 0.19 -50
vn -1 7.47369e-16 3.10862e-16
v -50 0.19 -49.8
v -50 31.1 -49.8
v -50 31.1 -50
f 17/3/11 18/10/11 19/11/11 20/12/11 

v 50 0.19 -50
v 50 0.19 -49.8
f 21/6/4 22/13/4 18/14/4 17/3/4 

vn 1 -3.73684e-15 -3.10862e-16
v 50 31.1 -50
v 50 31.1 -49.8
f 22/15/12 21/16/12 23/17/12 24/18/12 

f 24/19/2 23/6/2 20/20/2 19/21/2 

vn 3.10862e-16 0 1
f 18/22/13 22/4/13 24/23/13 19/24/13 

g Mesh6 Wall_Base2 Model

l 18 17

l 18 19

l 22 18

l 22 24

l 21 22

l 17 21

l 17 20

l 19 20

l 24 19

l 23 24

l 20 23

l 21 23

g Mesh7 Wall_Base3 Model

v 50 0.19 50
vn 1 7.47369e-16 1.88738e-16
v 50 0.19 49.8
v 50 31.1 49.8
v 50 31.1 50
f 25/3/14 26/10/14 27/11/14 28/12/14 

v -50 0.19 50
v -50 0.19 49.8
f 29/6/4 30/13/4 26/14/4 25/3/4 

vn -1 -3.73684e-15 -1.88738e-16
v -50 31.1 50
v -50 31.1 49.8
f 30/15/15 29/16/15 31/17/15 32/18/15 

f 32/19/2 31/6/2 28/20/2 27/21/2 

vn 1.88738e-16 0 -1
f 26/22/16 30/4/16 32/23/16 27/24/16 

g Mesh8 Wall_Base3 Model

l 26 25

l 26 27

l 30 26

l 30 32

l 29 30

l 25 29

l 25 28

l 27 28

l 32 27

l 31 32

l 28 31

l 29 31

g Mesh9 Wall_Base4 Model

v -50 0.19 50
vn 8.43769e-16 7.47369e-16 1
v -49.8 0.19 50
v -49.8 31.1 50
v -50 31.1 50
f 33/3/17 34/10/17 35/11/17 36/12/17 

v -50 0.19 -50
v -49.8 0.19 -50
f 37/6/4 38/13/4 34/14/4 33/3/4 

vn -8.43769e-16 -3.73684e-15 -1
v -50 31.1 -50
v -49.8 31.1 -50
f 38/15/18 37/16/18 39/17/18 40/18/18 

f 40/19/2 39/6/2 36/20/2 35/21/2 

vn 1 0 -8.43769e-16
f 34/22/19 38/4/19 40/23/19 35/24/19 

g Mesh10 Wall_Base4 Model

l 34 33

l 34 35

l 38 34

l 38 40

l 37 38

l 33 37

l 33 36

l 35 36

l 40 35

l 39 40

l 36 39

l 37 39

g Mesh11 Wall_Plinthe1 Model

v -50 0.76 49.83
vt -3856.99 44.8819
v -50 0.12 49.83
vt -3856.99 19.685
v 49.9975 0.12 49.83
vt 79.9213 19.685
v 49.9975 0.76 49.83
vt 79.9213 44.8819
f 41/25/5 42/26/5 43/27/5 44/28/5 

vt 0 19.685
vt 0 44.8819
v -50 0.76 49.73
vt -3.93701 44.8819
v -50 0.12 49.73
vt -3.93701 19.685
f 42/29/6 41/30/6 45/31/6 46/32/6 

vt -3856.99 0
vn 1.33358e-16 1 -0
vt 79.9213 0
v 49.9975 0.76 49.73
vt 79.9213 3.93701
vt -3856.99 3.93701
f 41/33/20 44/34/20 47/35/20 45/36/20 

vt 5.26202e-40 44.8819
vn 1 -1.26334e-13 6.584e-42
vt 5.26202e-40 19.685
v 49.9975 0.12 49.73
vt 3.93701 19.685
vt 3.93701 44.8819
f 44/37/21 43/38/21 48/39/21 47/40/21 

vt -79.9213 0
vt 3856.99 0
vt 3856.99 3.93701
vt -79.9213 3.93701
f 43/41/4 42/42/4 46/43/4 48/44/4 

vt 3856.99 19.685
vt 3856.99 44.8819
vt -79.9213 44.8819
vt -79.9213 19.685
f 46/45/3 45/46/3 47/47/3 48/48/3 

g Mesh12 Wall_Plinthe1 Model

l 42 41

l 43 42

l 44 43

l 41 44

l 41 45

l 46 45

l 48 46

l 47 48

l 45 47

l 44 47

l 43 48

l 42 46

g Mesh13 Wall_Plinthe2 Model

v -50 0.802055 -49.7222
v -50 0.162055 -49.7222
v 49.9975 0.162055 -49.7222
v 49.9975 0.802055 -49.7222
f 49/25/5 50/26/5 51/27/5 52/28/5 

v -50 0.802055 -49.8222
v -50 0.162055 -49.8222
f 50/29/6 49/30/6 53/31/6 54/32/6 

v 49.9975 0.802055 -49.8222
f 49/33/20 52/34/20 55/35/20 53/36/20 

v 49.9975 0.162055 -49.8222
f 52/37/21 51/38/21 56/39/21 55/40/21 

f 51/41/4 50/42/4 54/43/4 56/44/4 

f 54/45/3 53/46/3 55/47/3 56/48/3 

g Mesh14 Wall_Plinthe2 Model

l 50 49

l 51 50

l 52 51

l 49 52

l 49 53

l 54 53

l 56 54

l 55 56

l 53 55

l 52 55

l 51 56

l 50 54

g Mesh15 Wall_Plinthe3 Model

v -49.8446 0.76172 -50
vn -1 1.33358e-16 -5.82867e-16
v -49.8446 0.12172 -50
v -49.8446 0.12172 49.9975
v -49.8446 0.76172 49.9975
f 57/25/22 58/26/22 59/27/22 60/28/22 

vn 5.82867e-16 -1.33358e-16 -1
v -49.7446 0.76172 -50
v -49.7446 0.12172 -50
f 58/29/23 57/30/23 61/31/23 62/32/23 

vn 1.33358e-16 1 -1.97142e-31
v -49.7446 0.76172 49.9975
f 57/33/24 60/34/24 63/35/24 61/36/24 

vn -5.82867e-16 -1.26201e-13 1
v -49.7446 0.12172 49.9975
f 60/37/25 59/38/25 64/39/25 63/40/25 

vn -1.33358e-16 -1 1.33358e-16
f 59/41/26 58/42/26 62/43/26 64/44/26 

vn 1 -1.33358e-16 5.82867e-16
f 62/45/27 61/46/27 63/47/27 64/48/27 

g Mesh16 Wall_Plinthe3 Model

l 58 57

l 59 58

l 60 59

l 57 60

l 57 61

l 62 61

l 64 62

l 63 64

l 61 63

l 60 63

l 59 64

l 58 62

g Mesh17 Wall_Plinthe4 Model

v 49.71 0.761451 -49.9975
v 49.71 0.121451 -49.9975
v 49.71 0.121451 50
v 49.71 0.761451 50
f 65/25/22 66/26/22 67/27/22 68/28/22 

v 49.81 0.761451 -49.9975
v 49.81 0.121451 -49.9975
f 66/29/23 65/30/23 69/31/23 70/32/23 

v 49.81 0.761451 50
f 65/33/24 68/34/24 71/35/24 69/36/24 

v 49.81 0.121451 50
f 68/37/25 67/38/25 72/39/25 71/40/25 

f 67/41/26 66/42/26 70/43/26 72/44/26 

f 70/45/27 69/46/27 71/47/27 72/48/27 

g Mesh18 Wall_Plinthe4 Model

l 66 65

l 67 66

l 68 67

l 65 68

l 65 69

l 70 69

l 72 70

l 71 72

l 69 71

l 68 71

l 67 72

l 66 70

g Mesh19 Wall_Base5 Model

v -31.1045 0.19 50
vn 3.9443e-32 7.47369e-16 1
v -30.9045 0.19 50
v -30.9045 31.1 50
v -31.1045 31.1 50
f 73/3/28 74/10/28 75/11/28 76/12/28 

v -31.1045 0.19 -50
v -30.9045 0.19 -50
f 77/6/4 78/13/4 74/14/4 73/3/4 

vn -3.9443e-32 -3.73684e-15 -1
v -31.1045 31.1 -50
v -30.9045 31.1 -50
f 78/15/29 77/16/29 79/17/29 80/18/29 

f 80/19/2 79/6/2 76/20/2 75/21/2 

vn 1 0 -3.9443e-32
f 74/22/30 78/4/30 80/23/30 75/24/30 

g Mesh20 Wall_Base5 Model

l 74 73

l 74 75

l 78 74

l 78 80

l 77 78

l 73 77

l 73 76

l 75 76

l 80 75

l 79 80

l 76 79

l 77 79

g Mesh21 Wall_Plinthe5 Model

v -30.9378 0.762725 -49.9975
v -30.9378 0.122725 -49.9975
v -30.9378 0.122725 50
v -30.9378 0.762725 50
f 81/25/22 82/26/22 83/27/22 84/28/22 

v -30.8378 0.762725 -49.9975
v -30.8378 0.122725 -49.9975
f 82/29/23 81/30/23 85/31/23 86/32/23 

v -30.8378 0.762725 50
f 81/33/24 84/34/24 87/35/24 85/36/24 

v -30.8378 0.122725 50
f 84/37/25 83/38/25 88/39/25 87/40/25 

f 83/41/26 82/42/26 86/43/26 88/44/26 

f 86/45/27 85/46/27 87/47/27 88/48/27 

g Mesh22 Wall_Plinthe5 Model

l 82 81

l 83 82

l 84 83

l 81 84

l 81 85

l 86 85

l 88 86

l 87 88

l 85 87

l 84 87

l 83 88

l 82 86

