# Blender 3.4.1
# www.blender.org
mtllib vase.mtl
g Leaf_Plane
v -0.590372 8.426257 0.234321
v 0.163889 9.357760 0.274196
v -0.590372 8.426257 0.029117
v 0.163889 9.357760 0.040603
v -0.209397 8.820141 0.571051
v -0.209397 8.820141 -0.296858
v -0.427738 8.550492 -0.154421
v -0.427738 8.550492 0.401606
v -0.005738 9.148273 0.481299
v -0.005738 9.148273 -0.166690
v -0.567935 8.408090 0.029117
v -0.567935 8.408090 0.234321
v 0.016699 9.130104 0.481299
v 0.186327 9.339592 0.274196
v 0.186327 9.339592 0.040603
v -0.405301 8.532324 -0.154421
v -0.405301 8.532324 0.401606
v -0.186960 8.801972 0.571051
v 0.016699 9.130104 -0.166690
v -0.186960 8.801972 -0.296858
vn 0.7772 -0.6293 -0.0000
vn 0.6070 -0.7947 -0.0000
vn 0.8497 -0.5273 -0.0000
vn -0.7772 0.6293 -0.0000
vn -0.6070 0.7947 -0.0000
vn -0.8497 0.5273 -0.0000
vn -0.6293 -0.7772 -0.0000
vn 0.4268 0.5270 0.7349
vn -0.1435 -0.1772 -0.9736
vn 0.6293 0.7772 -0.0000
vn 0.2390 0.2951 0.9251
vn 0.2762 0.3410 -0.8986
vn -0.3836 -0.4738 0.7927
vn -0.3834 -0.4735 -0.7930
vn 0.4051 0.5002 -0.7653
vn -0.2024 -0.2500 0.9469
vt 0.000000 0.000000
vt 1.000000 0.000000
vt 0.000000 1.000000
vt 1.000000 1.000000
vt 0.500000 0.000000
vt 0.500000 1.000000
vt 0.250000 1.000000
vt 0.250000 0.000000
vt 0.750000 0.000000
vt 0.750000 1.000000
vt 0.000000 1.000000
vt 0.000000 0.000000
vt 0.750000 0.000000
vt 1.000000 0.000000
vt 1.000000 1.000000
vt 0.250000 1.000000
vt 0.250000 0.000000
vt 0.500000 0.000000
vt 0.750000 1.000000
vt 0.500000 1.000000
s 0
f 9/9/1 10/10/1 4/4/1 2/2/1
f 8/8/1 7/7/1 6/6/1 5/5/1
f 1/1/2 3/3/2 7/7/2 8/8/2
f 5/5/3 6/6/3 10/10/3 9/9/3
f 13/13/4 14/14/4 15/15/4 19/19/4
f 17/17/4 18/18/4 20/20/4 16/16/4
f 12/12/5 17/17/5 16/16/5 11/11/5
f 18/18/6 13/13/6 19/19/6 20/20/6
f 2/2/7 4/4/7 15/15/7 14/14/7
f 7/7/8 3/3/8 11/11/8 16/16/8
f 5/5/9 9/9/9 13/13/9 18/18/9
f 3/3/10 1/1/10 12/12/10 11/11/10
f 6/6/11 7/7/11 16/16/11 20/20/11
f 8/8/12 5/5/12 18/18/12 17/17/12
f 4/4/13 10/10/13 19/19/13 15/15/13
f 9/9/14 2/2/14 14/14/14 13/13/14
f 1/1/15 8/8/15 17/17/15 12/12/15
f 10/10/16 6/6/16 20/20/16 19/19/16
g Leaf.001_Plane.003
v -0.666768 8.393507 0.119651
v -0.573683 8.832103 1.231931
v -0.487589 8.476892 0.064419
v -0.369715 8.927024 1.169058
v -0.879613 8.423725 0.725833
v -0.121777 8.776400 0.492229
v -0.283174 8.586867 0.211696
v -0.768682 8.360926 0.361354
v -0.783284 8.645666 1.039945
v -0.217477 8.908977 0.865534
v -0.473859 8.452894 0.072733
v -0.653037 8.369510 0.127965
v -0.769554 8.621669 1.048258
v -0.559952 8.808105 1.240245
v -0.355985 8.903027 1.177372
v -0.269444 8.562869 0.220009
v -0.754952 8.336928 0.369668
v -0.865883 8.399728 0.734147
v -0.203746 8.884978 0.873848
v -0.108046 8.752402 0.500543
vn 0.4756 -0.8312 0.2880
vn 0.4371 -0.8972 0.0633
vn 0.4852 -0.7773 0.4004
vn -0.4756 0.8312 -0.2880
vn -0.4371 0.8972 -0.0633
vn -0.4852 0.7773 -0.4004
vn -0.1067 -0.3794 -0.9190
vn -0.5693 -0.0413 0.8211
vn 0.8258 0.3091 -0.4717
vn 0.1067 0.3794 0.9190
vn -0.7672 -0.2318 0.5980
vn 0.8314 0.5316 0.1614
vn -0.7572 -0.5534 -0.3469
vn 0.6274 0.0910 -0.7734
vn 0.7369 0.5552 0.3856
vn -0.8611 -0.5068 -0.0408
vt 0.000000 0.000000
vt 1.000000 0.000000
vt 0.000000 1.000000
vt 1.000000 1.000000
vt 0.500000 0.000000
vt 0.500000 1.000000
vt 0.250000 1.000000
vt 0.250000 0.000000
vt 0.750000 0.000000
vt 0.750000 1.000000
vt 0.000000 1.000000
vt 0.000000 0.000000
vt 0.750000 0.000000
vt 1.000000 0.000000
vt 1.000000 1.000000
vt 0.250000 1.000000
vt 0.250000 0.000000
vt 0.500000 0.000000
vt 0.750000 1.000000
vt 0.500000 1.000000
s 0
f 29/29/17 30/30/17 24/24/17 22/22/17
f 28/28/17 27/27/17 26/26/17 25/25/17
f 21/21/18 23/23/18 27/27/18 28/28/18
f 25/25/19 26/26/19 30/30/19 29/29/19
f 33/33/20 34/34/20 35/35/20 39/39/20
f 37/37/20 38/38/20 40/40/20 36/36/20
f 32/32/21 37/37/21 36/36/21 31/31/21
f 38/38/22 33/33/22 39/39/22 40/40/22
f 22/22/23 24/24/23 35/35/23 34/34/23
f 27/27/24 23/23/24 31/31/24 36/36/24
f 25/25/25 29/29/25 33/33/25 38/38/25
f 23/23/26 21/21/26 32/32/26 31/31/26
f 26/26/27 27/27/27 36/36/27 40/40/27
f 28/28/28 25/25/28 38/38/28 37/37/28
f 24/24/29 30/30/29 39/39/29 35/35/29
f 29/29/30 22/22/30 34/34/30 33/33/30
f 21/21/31 28/28/31 37/37/31 32/32/31
f 30/30/32 26/26/32 40/40/32 39/39/32
g Leaf.002_Plane.004
v -0.494805 8.448113 0.121191
v -1.128544 8.509441 -0.895082
v -0.663632 8.412913 0.232398
v -1.320729 8.469372 -0.768490
v -0.515649 8.483240 -0.520685
v -1.229703 8.334363 -0.050336
v -0.919567 8.343023 0.160404
v -0.462107 8.438401 -0.140925
v -0.808254 8.532713 -0.783625
v -1.341373 8.421559 -0.432459
v -0.660234 8.384501 0.228564
v -0.491406 8.419701 0.117357
v -0.804855 8.504300 -0.787459
v -1.125146 8.481029 -0.898916
v -1.317330 8.440959 -0.772324
v -0.916168 8.314610 0.156570
v -0.458709 8.409988 -0.144759
v -0.512250 8.454827 -0.524519
v -1.337975 8.393147 -0.436293
v -1.226305 8.305950 -0.054170
vn 0.1177 -0.9841 -0.1328
vn 0.2454 -0.9671 0.0664
vn 0.0474 -0.9708 -0.2354
vn -0.1177 0.9841 0.1328
vn -0.2454 0.9671 -0.0664
vn -0.0474 0.9708 0.2354
vn 0.5561 -0.0455 0.8299
vn 0.2275 0.1569 -0.9611
vn -0.6742 -0.1774 0.7169
vn -0.5561 0.0455 -0.8299
vn 0.5499 0.1759 -0.8165
vn -0.9833 -0.1342 0.1228
vn 0.9912 0.1083 0.0763
vn -0.3136 -0.1637 0.9353
vn -0.9876 -0.1020 -0.1194
vn 0.9579 0.1478 -0.2462
vt 0.000000 0.000000
vt 1.000000 0.000000
vt 0.000000 1.000000
vt 1.000000 1.000000
vt 0.500000 0.000000
vt 0.500000 1.000000
vt 0.250000 1.000000
vt 0.250000 0.000000
vt 0.750000 0.000000
vt 0.750000 1.000000
vt 0.000000 1.000000
vt 0.000000 0.000000
vt 0.750000 0.000000
vt 1.000000 0.000000
vt 1.000000 1.000000
vt 0.250000 1.000000
vt 0.250000 0.000000
vt 0.500000 0.000000
vt 0.750000 1.000000
vt 0.500000 1.000000
s 0
f 49/49/33 50/50/33 44/44/33 42/42/33
f 48/48/33 47/47/33 46/46/33 45/45/33
f 41/41/34 43/43/34 47/47/34 48/48/34
f 45/45/35 46/46/35 50/50/35 49/49/35
f 53/53/36 54/54/36 55/55/36 59/59/36
f 57/57/36 58/58/36 60/60/36 56/56/36
f 52/52/37 57/57/37 56/56/37 51/51/37
f 58/58/38 53/53/38 59/59/38 60/60/38
f 42/42/39 44/44/39 55/55/39 54/54/39
f 47/47/40 43/43/40 51/51/40 56/56/40
f 45/45/41 49/49/41 53/53/41 58/58/41
f 43/43/42 41/41/42 52/52/42 51/51/42
f 46/46/43 47/47/43 56/56/43 60/60/43
f 48/48/44 45/45/44 58/58/44 57/57/44
f 44/44/45 50/50/45 59/59/45 55/55/45
f 49/49/46 42/42/46 54/54/46 53/53/46
f 41/41/47 48/48/47 57/57/47 52/52/47
f 50/50/48 46/46/48 60/60/48 59/59/48
g Leaf.003_Plane.005
v -0.612495 8.394964 0.037699
v -1.786430 8.504293 0.257064
v -0.564951 8.440813 0.231982
v -1.732308 8.556485 0.478226
v -1.223130 8.326822 -0.152445
v -1.022041 8.520741 0.669275
v -0.717891 8.454688 0.459989
v -0.846719 8.330454 -0.066447
v -1.572484 8.431429 0.003159
v -1.422348 8.576210 0.616663
v -0.566263 8.412816 0.238910
v -0.613808 8.366967 0.044627
v -1.573796 8.403432 0.010087
v -1.787743 8.476296 0.263992
v -1.733621 8.528489 0.485154
v -0.719203 8.426691 0.466917
v -0.848031 8.302458 -0.059519
v -1.224443 8.298825 -0.145517
v -1.423661 8.548214 0.623591
v -1.023353 8.492743 0.676203
vn -0.0455 -0.9697 0.2400
vn 0.1847 -0.9657 0.1827
vn -0.1664 -0.9498 0.2649
vn 0.0455 0.9697 -0.2400
vn -0.1847 0.9657 -0.1827
vn 0.1664 0.9498 -0.2649
vn 0.9717 -0.0986 -0.2145
vn -0.8293 -0.0973 -0.5503
vn 0.4472 0.1950 0.8729
vn -0.9717 0.0986 0.2145
vn -0.5834 -0.1692 -0.7944
vn -0.2182 0.2441 0.9449
vn 0.4087 -0.2373 -0.8813
vn 0.7758 0.1171 0.6201
vn -0.4482 0.2345 0.8627
vn 0.0932 -0.2433 -0.9655
vt 0.000000 0.000000
vt 1.000000 0.000000
vt 0.000000 1.000000
vt 1.000000 1.000000
vt 0.500000 0.000000
vt 0.500000 1.000000
vt 0.250000 1.000000
vt 0.250000 0.000000
vt 0.750000 0.000000
vt 0.750000 1.000000
vt 0.000000 1.000000
vt 0.000000 0.000000
vt 0.750000 0.000000
vt 1.000000 0.000000
vt 1.000000 1.000000
vt 0.250000 1.000000
vt 0.250000 0.000000
vt 0.500000 0.000000
vt 0.750000 1.000000
vt 0.500000 1.000000
s 0
f 69/69/49 70/70/49 64/64/49 62/62/49
f 68/68/49 67/67/49 66/66/49 65/65/49
f 61/61/50 63/63/50 67/67/50 68/68/50
f 65/65/51 66/66/51 70/70/51 69/69/51
f 73/73/52 74/74/52 75/75/52 79/79/52
f 77/77/52 78/78/52 80/80/52 76/76/52
f 72/72/53 77/77/53 76/76/53 71/71/53
f 78/78/54 73/73/54 79/79/54 80/80/54
f 62/62/55 64/64/55 75/75/55 74/74/55
f 67/67/56 63/63/56 71/71/56 76/76/56
f 65/65/57 69/69/57 73/73/57 78/78/57
f 63/63/58 61/61/58 72/72/58 71/71/58
f 66/66/59 67/67/59 76/76/59 80/80/59
f 68/68/60 65/65/60 78/78/60 77/77/60
f 64/64/61 70/70/61 79/79/61 75/75/61
f 69/69/62 62/62/62 74/74/62 73/73/62
f 61/61/63 68/68/63 77/77/63 72/72/63
f 70/70/64 66/66/64 80/80/64 79/79/64
g Leaf.004_Plane.006
v -0.477554 8.465264 0.155699
v -0.099178 9.061543 -0.813569
v -0.641705 8.393291 0.055785
v -0.286038 8.979611 -0.927307
v -0.025043 8.809957 -0.144458
v -0.719318 8.505545 -0.567048
v -0.705674 8.386944 -0.211494
v -0.260887 8.581965 0.059238
v -0.011428 9.003229 -0.490382
v -0.529780 8.775952 -0.805892
v -0.626522 8.370177 0.047492
v -0.462372 8.442151 0.147407
v 0.003754 8.980115 -0.498675
v -0.083995 9.038428 -0.821862
v -0.270856 8.956497 -0.935600
v -0.690492 8.363830 -0.219787
v -0.245705 8.558851 0.050945
v -0.009861 8.786842 -0.152751
v -0.514598 8.752838 -0.814184
v -0.704136 8.482430 -0.575341
vn 0.5259 -0.8006 -0.2872
vn 0.4430 -0.8925 -0.0848
vn 0.5578 -0.7337 -0.3880
vn -0.5259 0.8006 0.2872
vn -0.4430 0.8925 0.0848
vn -0.5578 0.7337 0.3880
vn -0.2891 -0.4858 0.8249
vn 0.7839 0.5872 -0.2016
vn -0.8448 -0.4523 -0.2860
vn 0.2891 0.4858 -0.8249
vn 0.8498 0.5090 0.1372
vn -0.5919 -0.1020 -0.7995
vn 0.4579 -0.0181 0.8888
vn -0.8104 -0.5741 0.1165
vn -0.4261 0.0443 -0.9036
vn 0.6644 0.1758 0.7264
vt 0.000000 0.000000
vt 1.000000 0.000000
vt 0.000000 1.000000
vt 1.000000 1.000000
vt 0.500000 0.000000
vt 0.500000 1.000000
vt 0.250000 1.000000
vt 0.250000 0.000000
vt 0.750000 0.000000
vt 0.750000 1.000000
vt 0.000000 1.000000
vt 0.000000 0.000000
vt 0.750000 0.000000
vt 1.000000 0.000000
vt 1.000000 1.000000
vt 0.250000 1.000000
vt 0.250000 0.000000
vt 0.500000 0.000000
vt 0.750000 1.000000
vt 0.500000 1.000000
s 0
f 89/89/65 90/90/65 84/84/65 82/82/65
f 88/88/65 87/87/65 86/86/65 85/85/65
f 81/81/66 83/83/66 87/87/66 88/88/66
f 85/85/67 86/86/67 90/90/67 89/89/67
f 93/93/68 94/94/68 95/95/68 99/99/68
f 97/97/68 98/98/68 100/100/68 96/96/68
f 92/92/69 97/97/69 96/96/69 91/91/69
f 98/98/70 93/93/70 99/99/70 100/100/70
f 82/82/71 84/84/71 95/95/71 94/94/71
f 87/87/72 83/83/72 91/91/72 96/96/72
f 85/85/73 89/89/73 93/93/73 98/98/73
f 83/83/74 81/81/74 92/92/74 91/91/74
f 86/86/75 87/87/75 96/96/75 100/100/75
f 88/88/76 85/85/76 98/98/76 97/97/76
f 84/84/77 90/90/77 99/99/77 95/95/77
f 89/89/78 82/82/78 94/94/78 93/93/78
f 81/81/79 88/88/79 97/97/79 92/92/79
f 90/90/80 86/86/80 100/100/80 99/99/80
g Vase_Cylinder.001
v 0.000000 -0.001139 -1.000000
v -0.000000 0.385319 -1.167372
v 0.707107 -0.001139 -0.707107
v 0.825456 0.385319 -0.825456
v 1.000000 -0.001139 0.000000
v 1.167372 0.385319 0.000000
v 0.707107 -0.001139 0.707107
v 0.825456 0.385319 0.825456
v 0.000000 -0.001139 1.000000
v -0.000000 0.385319 1.167372
v -0.707107 -0.001139 0.707107
v -0.825456 0.385319 0.825456
v -1.000000 -0.001139 0.000000
v -1.167372 0.385319 0.000000
v -0.707107 -0.001139 -0.707107
v -0.825456 0.385319 -0.825456
v 0.959879 1.703006 -0.959879
v -0.000000 1.703006 -1.357474
v 1.357474 1.703006 0.000000
v 0.959879 1.703006 0.959879
v -0.000000 1.703006 1.357474
v -0.959879 1.703006 0.959879
v -1.357474 1.703006 0.000000
v -0.959879 1.703006 -0.959879
v 0.481663 2.852333 -0.481663
v -0.000000 2.852333 -0.681174
v 0.681174 2.852333 0.000000
v 0.481663 2.852333 0.481663
v -0.000000 2.852333 0.681174
v -0.481663 2.852333 0.481663
v -0.681174 2.852333 0.000000
v -0.481663 2.852333 -0.481663
v 0.250508 5.187968 -0.250508
v 0.000000 5.187968 -0.354272
v 0.354272 5.187968 -0.000000
v 0.250508 5.187968 0.250508
v 0.000000 5.187968 0.354272
v -0.250508 5.187968 0.250508
v -0.354272 5.187968 -0.000000
v -0.250508 5.187968 -0.250508
v 0.331121 5.422812 -0.331120
v 0.000000 5.422812 -0.468275
v 0.468275 5.422812 -0.000000
v 0.331121 5.422812 0.331120
v 0.000000 5.422812 0.468275
v -0.331120 5.422812 0.331120
v -0.468275 5.422812 -0.000000
v -0.331120 5.422812 -0.331120
v 0.331121 5.538298 -0.331120
v 0.000000 5.538298 -0.468275
v 0.468275 5.538298 -0.000000
v 0.331121 5.538298 0.331120
v 0.000000 5.538298 0.468275
v -0.331120 5.538298 0.331120
v -0.468275 5.538298 -0.000000
v -0.331120 5.538298 -0.331120
v 0.259615 5.566923 -0.259615
v 0.000000 5.566923 -0.367150
v 0.367151 5.566923 -0.000000
v 0.259615 5.566923 0.259615
v 0.000000 5.566923 0.367150
v -0.259614 5.566923 0.259615
v -0.367150 5.566923 -0.000000
v -0.259614 5.566923 -0.259615
v 0.204494 5.497298 -0.204494
v 0.000000 5.497298 -0.289198
v 0.289198 5.497298 0.000000
v 0.204494 5.497298 0.204494
v 0.000000 5.497298 0.289198
v -0.204493 5.497298 0.204494
v -0.289197 5.497298 0.000000
v -0.204493 5.497298 -0.204494
v 0.155721 2.626218 -0.155721
v 0.000000 2.626218 -0.220223
v 0.220223 2.626218 0.000000
v 0.155721 2.626218 0.155721
v 0.000000 2.626218 0.220223
v -0.155721 2.626218 0.155721
v -0.220222 2.626218 0.000000
v -0.155721 2.626218 -0.155721
v 0.155721 2.002743 -0.155721
v 0.000000 2.002743 -0.220223
v 0.220223 2.002743 0.000000
v 0.155721 2.002743 0.155721
v 0.000000 2.002743 0.220223
v -0.155720 2.002743 0.155721
v -0.220222 2.002743 0.000000
v -0.155720 2.002743 -0.155721
vn 0.3553 -0.3715 -0.8578
vn 0.8578 -0.3715 -0.3553
vn 0.8578 -0.3715 0.3553
vn 0.3553 -0.3715 0.8578
vn -0.3553 -0.3715 0.8578
vn -0.8578 -0.3715 0.3553
vn 0.9158 -0.1321 0.3793
vn -0.8578 -0.3715 -0.3553
vn -0.3553 -0.3715 -0.8578
vn -0.0000 -1.0000 -0.0000
vn -0.8117 0.4776 -0.3362
vn -0.9158 -0.1321 0.3793
vn 0.3793 -0.1321 0.9158
vn -0.9158 -0.1321 -0.3793
vn 0.9158 -0.1321 -0.3793
vn -0.3793 -0.1321 0.9158
vn -0.3793 -0.1321 -0.9158
vn 0.3793 -0.1321 -0.9158
vn 0.9163 0.1282 -0.3795
vn -0.3362 0.4776 0.8117
vn 0.8117 0.4776 0.3362
vn 0.3362 0.4776 -0.8117
vn -0.3362 0.4776 -0.8117
vn -0.8117 0.4776 0.3362
vn 0.3362 0.4776 0.8117
vn 0.8117 0.4776 -0.3362
vn -0.3492 -0.4092 -0.8430
vn -0.9163 0.1282 -0.3795
vn -0.3795 0.1282 0.9163
vn 0.9163 0.1282 0.3795
vn 0.3795 0.1282 -0.9163
vn -0.3795 0.1282 -0.9163
vn -0.9163 0.1282 0.3795
vn 0.3795 0.1282 0.9163
vn 0.9239 -0.0000 0.3827
vn -0.8430 -0.4092 0.3492
vn 0.3492 -0.4092 0.8430
vn 0.8430 -0.4092 -0.3492
vn -0.8430 -0.4092 -0.3492
vn -0.3492 -0.4092 0.8430
vn 0.8430 -0.4092 0.3492
vn 0.3492 -0.4092 -0.8430
vn 0.2706 0.9561 0.1121
vn 0.3827 -0.0000 -0.9239
vn -0.3827 -0.0000 -0.9239
vn -0.9239 -0.0000 0.3827
vn 0.3827 -0.0000 0.9239
vn 0.9239 -0.0000 -0.3827
vn -0.9239 -0.0000 -0.3827
vn -0.3827 -0.0000 0.9239
vn 0.6421 0.7190 0.2660
vn 0.1121 0.9561 -0.2706
vn -0.1121 0.9561 -0.2706
vn -0.2706 0.9561 0.1121
vn 0.1121 0.9561 0.2706
vn 0.2706 0.9561 -0.1121
vn -0.2706 0.9561 -0.1121
vn -0.1121 0.9561 0.2706
vn -0.3826 0.0222 -0.9237
vn 0.2660 0.7190 -0.6421
vn -0.6421 0.7190 -0.2660
vn -0.2660 0.7190 0.6421
vn 0.2660 0.7190 0.6421
vn 0.6421 0.7190 -0.2660
vn -0.2660 0.7190 -0.6421
vn -0.6421 0.7190 0.2660
vn -0.9237 0.0222 0.3826
vn 0.9237 0.0222 0.3826
vn 0.3826 0.0222 -0.9237
vn -0.9237 0.0222 -0.3826
vn -0.3826 0.0222 0.9237
vn 0.3826 0.0222 0.9237
vn 0.9237 0.0222 -0.3826
vn -0.0000 1.0000 -0.0000
vt 1.000000 0.500000
vt 0.000000 0.500000
vt 0.750000 0.490000
vt 0.000000 1.000000
vt 1.000000 1.000000
vt 0.875000 0.500000
vt 0.919706 0.419706
vt 0.875000 1.000000
vt 0.750000 0.500000
vt 0.990000 0.250000
vt 0.750000 1.000000
vt 0.625000 0.500000
vt 0.919706 0.080294
vt 0.625000 1.000000
vt 0.500000 0.500000
vt 0.750000 0.010000
vt 0.500000 1.000000
vt 0.375000 0.500000
vt 0.580294 0.080294
vt 0.375000 1.000000
vt 0.250000 0.500000
vt 0.510000 0.250000
vt 0.250000 1.000000
vt 0.125000 0.500000
vt 0.580294 0.419706
vt 0.125000 1.000000
vt 0.875000 1.000000
vt 1.000000 1.000000
vt 0.000000 1.000000
vt 0.750000 1.000000
vt 0.625000 1.000000
vt 0.500000 1.000000
vt 0.375000 1.000000
vt 0.250000 1.000000
vt 0.125000 1.000000
vt 0.875000 1.000000
vt 1.000000 1.000000
vt 0.000000 1.000000
vt 0.750000 1.000000
vt 0.625000 1.000000
vt 0.500000 1.000000
vt 0.375000 1.000000
vt 0.250000 1.000000
vt 0.125000 1.000000
vt 0.875000 1.000000
vt 0.000000 1.000000
vt 1.000000 1.000000
vt 0.750000 1.000000
vt 0.625000 1.000000
vt 0.500000 1.000000
vt 0.375000 1.000000
vt 0.250000 1.000000
vt 0.125000 1.000000
vt 0.875000 1.000000
vt 1.000000 1.000000
vt 0.000000 1.000000
vt 0.750000 1.000000
vt 0.625000 1.000000
vt 0.500000 1.000000
vt 0.375000 1.000000
vt 0.250000 1.000000
vt 0.125000 1.000000
vt 0.875000 1.000000
vt 1.000000 1.000000
vt 0.000000 1.000000
vt 0.750000 1.000000
vt 0.625000 1.000000
vt 0.500000 1.000000
vt 0.375000 1.000000
vt 0.250000 1.000000
vt 0.125000 1.000000
vt 0.875000 1.000000
vt 1.000000 1.000000
vt 0.000000 1.000000
vt 0.750000 1.000000
vt 0.625000 1.000000
vt 0.500000 1.000000
vt 0.375000 1.000000
vt 0.250000 1.000000
vt 0.125000 1.000000
vt 0.875000 1.000000
vt 1.000000 1.000000
vt 0.000000 1.000000
vt 0.750000 1.000000
vt 0.625000 1.000000
vt 0.500000 1.000000
vt 0.375000 1.000000
vt 0.250000 1.000000
vt 0.125000 1.000000
vt 0.875000 1.000000
vt 0.000000 1.000000
vt 1.000000 1.000000
vt 0.750000 1.000000
vt 0.625000 1.000000
vt 0.500000 1.000000
vt 0.375000 1.000000
vt 0.250000 1.000000
vt 0.125000 1.000000
vt 0.419706 0.419706
vt 0.875000 1.000000
vt 0.000000 1.000000
vt 0.250000 0.490000
vt 1.000000 1.000000
vt 0.490000 0.250000
vt 0.750000 1.000000
vt 0.419706 0.080294
vt 0.625000 1.000000
vt 0.250000 0.010000
vt 0.500000 1.000000
vt 0.080294 0.080294
vt 0.375000 1.000000
vt 0.010000 0.250000
vt 0.250000 1.000000
vt 0.080294 0.419706
vt 0.125000 1.000000
s 0
f 101/101/81 102/105/81 104/108/81 103/106/81
f 103/106/82 104/108/82 106/111/82 105/109/82
f 105/109/83 106/111/83 108/114/83 107/112/83
f 107/112/84 108/114/84 110/117/84 109/115/84
f 109/115/85 110/117/85 112/120/85 111/118/85
f 111/118/86 112/120/86 114/123/86 113/121/86
f 108/114/87 106/111/87 119/130/87 120/131/87
f 113/121/88 114/123/88 116/126/88 115/124/88
f 115/124/89 116/126/89 102/104/89 101/102/89
f 101/103/90 103/107/90 105/110/90 107/113/90 109/116/90 111/119/90 113/122/90 115/125/90
f 124/135/91 123/134/91 131/143/91 132/144/91
f 114/123/92 112/120/92 122/133/92 123/134/92
f 110/117/93 108/114/93 120/131/93 121/132/93
f 116/126/94 114/123/94 123/134/94 124/135/94
f 106/111/95 104/108/95 117/127/95 119/130/95
f 112/120/96 110/117/96 121/132/96 122/133/96
f 102/104/97 116/126/97 124/135/97 118/129/97
f 104/108/98 102/105/98 118/128/98 117/127/98
f 127/139/99 125/136/99 133/145/99 135/148/99
f 122/133/100 121/132/100 129/141/100 130/142/100
f 120/131/101 119/130/101 127/139/101 128/140/101
f 117/127/102 118/128/102 126/137/102 125/136/102
f 118/129/103 124/135/103 132/144/103 126/138/103
f 123/134/104 122/133/104 130/142/104 131/143/104
f 121/132/105 120/131/105 128/140/105 129/141/105
f 119/130/106 117/127/106 125/136/106 127/139/106
f 134/146/107 140/153/107 148/162/107 142/156/107
f 132/144/108 131/143/108 139/152/108 140/153/108
f 130/142/109 129/141/109 137/150/109 138/151/109
f 128/140/110 127/139/110 135/148/110 136/149/110
f 125/136/111 126/137/111 134/147/111 133/145/111
f 126/138/112 132/144/112 140/153/112 134/146/112
f 131/143/113 130/142/113 138/151/113 139/152/113
f 129/141/114 128/140/114 136/149/114 137/150/114
f 144/158/115 143/157/115 151/166/115 152/167/115
f 139/152/116 138/151/116 146/160/116 147/161/116
f 137/150/117 136/149/117 144/158/117 145/159/117
f 135/148/118 133/145/118 141/154/118 143/157/118
f 140/153/119 139/152/119 147/161/119 148/162/119
f 138/151/120 137/150/120 145/159/120 146/160/120
f 136/149/121 135/148/121 143/157/121 144/158/121
f 133/145/122 134/147/122 142/155/122 141/154/122
f 152/167/123 151/166/123 159/175/123 160/176/123
f 141/154/124 142/155/124 150/164/124 149/163/124
f 142/156/125 148/162/125 156/171/125 150/165/125
f 147/161/126 146/160/126 154/169/126 155/170/126
f 145/159/127 144/158/127 152/167/127 153/168/127
f 143/157/128 141/154/128 149/163/128 151/166/128
f 148/162/129 147/161/129 155/170/129 156/171/129
f 146/160/130 145/159/130 153/168/130 154/169/130
f 164/180/131 163/179/131 171/188/131 172/189/131
f 149/163/132 150/164/132 158/173/132 157/172/132
f 150/165/133 156/171/133 164/180/133 158/174/133
f 155/170/134 154/169/134 162/178/134 163/179/134
f 153/168/135 152/167/135 160/176/135 161/177/135
f 151/166/136 149/163/136 157/172/136 159/175/136
f 156/171/137 155/170/137 163/179/137 164/180/137
f 154/169/138 153/168/138 161/177/138 162/178/138
f 169/186/139 168/185/139 176/194/139 177/195/139
f 162/178/140 161/177/140 169/186/140 170/187/140
f 160/176/141 159/175/141 167/184/141 168/185/141
f 157/172/142 158/173/142 166/182/142 165/181/142
f 158/174/143 164/180/143 172/189/143 166/183/143
f 163/179/144 162/178/144 170/187/144 171/188/144
f 161/177/145 160/176/145 168/185/145 169/186/145
f 159/175/146 157/172/146 165/181/146 167/184/146
f 174/191/127 180/198/127 188/215/127 182/201/127
f 167/184/147 165/181/147 173/190/147 175/193/147
f 172/189/148 171/188/148 179/197/148 180/198/148
f 170/187/149 169/186/149 177/195/149 178/196/149
f 168/185/150 167/184/150 175/193/150 176/194/150
f 165/181/151 166/182/151 174/192/151 173/190/151
f 166/183/152 172/189/152 180/198/152 174/191/152
f 171/188/153 170/187/153 178/196/153 179/197/153
f 181/199/154 182/202/154 188/214/154 187/212/154 186/210/154 185/208/154 184/206/154 183/204/154
f 179/197/128 178/196/128 186/211/128 187/213/128
f 177/195/125 176/194/125 184/207/125 185/209/125
f 175/193/126 173/190/126 181/200/126 183/205/126
f 180/198/115 179/197/115 187/213/115 188/215/115
f 178/196/124 177/195/124 185/209/124 186/211/124
f 176/194/129 175/193/129 183/205/129 184/207/129
f 173/190/130 174/192/130 182/203/130 181/200/130
g Tige_Cylinder.002
v -0.000000 0.287530 -0.125686
v -0.155159 6.075207 -0.125686
v 0.108847 0.287530 -0.062843
v -0.054333 6.075207 -0.052037
v 0.108847 0.287530 0.062843
v -0.054333 6.075207 0.061299
v -0.000000 0.287530 0.125686
v -0.152485 6.075207 0.117967
v -0.108847 0.287530 0.062843
v -0.250637 6.075207 0.061299
v -0.108847 0.287530 -0.062843
v -0.264006 6.075207 -0.062843
v -0.242375 7.388045 0.019349
v -0.328389 7.375148 -0.073431
v -0.242375 7.388045 0.110820
v -0.321033 7.375148 0.156556
v -0.399692 7.362251 0.110820
v -0.436469 7.362251 -0.010589
v -0.588668 8.510056 0.090213
v -0.643825 8.491740 0.074747
v -0.576779 8.513250 0.138215
v -0.620048 8.498132 0.170751
v -0.675206 8.479816 0.155285
v -0.687094 8.476621 0.107283
vn 0.5455 0.0158 -0.8380
vn 0.9996 0.0282 -0.0000
vn 0.4999 0.0143 0.8659
vn -0.5000 -0.0120 0.8660
vn 0.4987 0.0389 0.8659
vn -0.9982 -0.0256 0.0534
vn -0.5000 -0.0134 -0.8659
vn -0.0000 -1.0000 -0.0000
vn 0.9523 0.2923 -0.0879
vn -0.4997 -0.0318 -0.8656
vn -0.4942 -0.0901 0.8647
vn 0.9899 0.1418 -0.0000
vn -0.9716 -0.1292 0.1984
vn 0.6550 0.1258 -0.7451
vn -0.3191 0.9476 0.0160
vn -0.9320 -0.2395 0.2722
vn 0.5145 0.1293 0.8477
vn 0.5561 0.2422 -0.7951
vn -0.5285 -0.0329 -0.8483
vn -0.3888 -0.1236 0.9130
vt 1.000000 0.500000
vt -0.000000 0.500000
vt 0.750000 0.490000
vt -0.000000 1.000000
vt 1.000000 1.000000
vt 0.833333 0.500000
vt 0.957846 0.370000
vt 0.833333 1.000000
vt 0.666667 0.500000
vt 0.957846 0.130000
vt 0.666667 1.000000
vt 0.500000 0.500000
vt 0.750000 0.010000
vt 0.500000 1.000000
vt 0.333333 0.500000
vt 0.542154 0.130000
vt 0.333333 1.000000
vt 0.166667 0.500000
vt 0.542154 0.370000
vt 0.166667 1.000000
vt 0.833333 1.000000
vt 1.000000 1.000000
vt -0.000000 1.000000
vt 0.666667 1.000000
vt 0.500000 1.000000
vt 0.333333 1.000000
vt 0.166667 1.000000
vt 0.457846 0.370000
vt 0.833333 1.000000
vt 0.250000 0.490000
vt 1.000000 1.000000
vt -0.000000 1.000000
vt 0.457846 0.130000
vt 0.666667 1.000000
vt 0.250000 0.010000
vt 0.500000 1.000000
vt 0.042154 0.130000
vt 0.333333 1.000000
vt 0.042154 0.370000
vt 0.166667 1.000000
s 0
f 189/216/155 190/220/155 192/223/155 191/221/155
f 191/221/156 192/223/156 194/226/156 193/224/156
f 193/224/157 194/226/157 196/229/157 195/227/157
f 195/227/158 196/229/158 198/232/158 197/230/158
f 196/229/159 194/226/159 203/239/159 204/240/159
f 197/230/160 198/232/160 200/235/160 199/233/160
f 199/233/161 200/235/161 190/219/161 189/217/161
f 189/218/162 191/222/162 193/225/162 195/228/162 197/231/162 199/234/162
f 203/239/163 201/236/163 207/244/163 209/249/163
f 190/219/164 200/235/164 206/242/164 202/238/164
f 198/232/165 196/229/165 204/240/165 205/241/165
f 194/226/166 192/223/166 201/236/166 203/239/166
f 200/235/167 198/232/167 205/241/167 206/242/167
f 192/223/168 190/220/168 202/237/168 201/236/168
f 207/243/169 208/245/169 212/254/169 211/252/169 210/250/169 209/248/169
f 206/242/170 205/241/170 211/253/170 212/255/170
f 204/240/171 203/239/171 209/249/171 210/251/171
f 201/236/172 202/237/172 208/246/172 207/244/172
f 202/238/173 206/242/173 212/255/173 208/247/173
f 205/241/174 204/240/174 210/251/174 211/253/174
