# Alias OBJ Model File
# Exported from SketchUp, (c) 2000-2012 Trimble Navigation Limited
# File units = meters

mtllib Chaise.mtl

g Mesh1 Pied_chaise1 Model

usemtl FrontColor
v -2.62512 -0.4264 -6.93931
vt 23.074 23.074
vn 0 1 -0
v -3.37488 -0.4264 -6.93931
vt -6.44409 23.074
v -3.37488 -0.4264 -6.18955
vt -6.44409 -6.44409
v -2.62512 -0.4264 -6.18955
vt 23.074 -6.44409
f 1/1/1 2/2/1 3/3/1 4/4/1 

v -3.2112 -10.1864 -6.77563
vt 5.34211e-17 0.278853
vn 3.2119e-18 -0.0167681 -0.999859
vt 6.44409 384.585
vt -23.074 384.585
v -2.7888 -10.1864 -6.77563
vt -16.6299 0.278853
f 5/5/2 2/6/2 1/7/2 6/8/2 

vt 6.44409 384.306
vn -0.999859 -0.0167681 -7.84914e-19
vt -23.074 384.306
vt -16.6299 2.18906e-19
v -3.2112 -10.1864 -6.35323
vt 0 0
f 3/9/3 2/10/3 5/11/3 7/12/3 

vt 0 16.6299
vn 0 -1 -0
vt -16.6299 16.6299
v -2.7888 -10.1864 -6.35323
vt -16.6299 0
f 5/13/4 6/14/4 8/15/4 7/12/4 

vt -6.44409 384.585
vn 0.999859 -0.0167681 5.4043e-18
vt 8.98857e-17 0.278853
vt 16.6299 0.278853
vt 23.074 384.585
f 4/16/5 8/17/5 6/18/5 1/19/5 

vt 16.6299 -8.30349e-19
vn -2.97731e-18 -0.0167681 0.999859
vt 23.074 384.306
vt -6.44409 384.306
f 8/20/6 4/21/6 3/22/6 7/12/6 

g Mesh2 Pied_chaise1 Model

l 1 4

l 6 1

l 5 6

l 5 2

l 7 5

l 7 3

l 8 7

l 6 8

l 8 4

l 4 3

l 3 2

l 2 1

g Mesh3 Pied_chaise2 Model

v 3.37488 -0.4264 -6.93931
v 2.62512 -0.4264 -6.93931
v 2.62512 -0.4264 -6.18955
v 3.37488 -0.4264 -6.18955
f 9/1/1 10/2/1 11/3/1 12/4/1 

v 2.7888 -10.1864 -6.77563
v 3.2112 -10.1864 -6.77563
f 13/5/2 10/6/2 9/7/2 14/8/2 

v 2.7888 -10.1864 -6.35323
f 11/9/3 10/10/3 13/11/3 15/12/3 

v 3.2112 -10.1864 -6.35323
f 13/13/4 14/14/4 16/15/4 15/12/4 

f 12/16/5 16/17/5 14/18/5 9/19/5 

f 16/20/6 12/21/6 11/22/6 15/12/6 

g Mesh4 Pied_chaise2 Model

l 9 12

l 14 9

l 13 14

l 13 10

l 15 13

l 15 11

l 16 15

l 14 16

l 16 12

l 12 11

l 11 10

l 10 9

g Mesh5 Pied_chaise3 Model

v 3.37488 -0.4264 -0.939312
v 2.62512 -0.4264 -0.939312
v 2.62512 -0.4264 -0.189552
v 3.37488 -0.4264 -0.189552
f 17/1/1 18/2/1 19/3/1 20/4/1 

v 2.7888 -10.1864 -0.775632
v 3.2112 -10.1864 -0.775632
f 21/5/2 18/6/2 17/7/2 22/8/2 

v 2.7888 -10.1864 -0.353232
f 19/9/3 18/10/3 21/11/3 23/12/3 

v 3.2112 -10.1864 -0.353232
f 21/13/4 22/14/4 24/15/4 23/12/4 

f 20/16/5 24/17/5 22/18/5 17/19/5 

f 24/20/6 20/21/6 19/22/6 23/12/6 

g Mesh6 Pied_chaise3 Model

l 17 20

l 22 17

l 21 22

l 21 18

l 23 21

l 23 19

l 24 23

l 22 24

l 24 20

l 20 19

l 19 18

l 18 17

g Mesh7 Pied_chaise4 Model

v -2.62512 -0.4264 -0.939312
v -3.37488 -0.4264 -0.939312
v -3.37488 -0.4264 -0.189552
v -2.62512 -0.4264 -0.189552
f 25/1/1 26/2/1 27/3/1 28/4/1 

v -3.2112 -10.1864 -0.775632
v -2.7888 -10.1864 -0.775632
f 29/5/2 26/6/2 25/7/2 30/8/2 

v -3.2112 -10.1864 -0.353232
f 27/9/3 26/10/3 29/11/3 31/12/3 

v -2.7888 -10.1864 -0.353232
f 29/13/4 30/14/4 32/15/4 31/12/4 

f 28/16/5 32/17/5 30/18/5 25/19/5 

f 32/20/6 28/21/6 27/22/6 31/12/6 

g Mesh8 Pied_chaise4 Model

l 25 28

l 30 25

l 29 30

l 29 26

l 31 29

l 31 27

l 32 31

l 30 32

l 32 28

l 28 27

l 27 26

l 26 25

g Mesh9 Assise1 Model

v -3.56443 -0.5328 -7.12886
vt -280.664 0
vn -1 0 -0
v -3.56443 -0.5328 -0
v -3.56443 0 -0
vt 0 20.9764
v -3.56443 0 -7.12886
vt -280.664 20.9764
f 33/23/7 34/12/7 35/24/7 36/25/7 

vt 0 280.664
v 3.56443 -0.5328 -7.12886
vt -280.664 280.664
v 3.56443 -0.5328 -0
f 34/12/4 33/26/4 37/27/4 38/23/4 

vn 0 0 -1
v 3.56443 0 -7.12886
f 37/23/8 33/12/8 36/24/8 39/25/8 

v 3.56443 0 -0
vt 280.664 0
vt 280.664 280.664
f 36/26/1 35/12/1 40/28/1 39/29/1 

vn 0 0 1
vt 280.664 20.9764
f 34/12/9 38/28/9 40/30/9 35/24/9 

vn 1 0 -0
f 38/12/10 37/28/10 39/30/10 40/24/10 

g Mesh10 Assise1 Model

l 34 33

l 34 35

l 38 34

l 37 38

l 33 37

l 33 36

l 35 36

l 40 35

l 39 40

l 36 39

l 37 39

l 38 40

g Mesh11 Structure_dossier1 Model

v 3.23557 1.67168 0.226763
vt 38.7101 65.814
v 3.23557 1.29002 0.174992
vt 40.7484 50.7882
v 3.23557 1.29002 -0.285008
vt 58.8586 50.7882
v 3.23557 1.67168 -0.233237
vt 56.8203 65.814
f 41/31/10 42/32/10 43/33/10 44/34/10 

v 3.11443 1.67168 0.226763
vt 262.947 60.0133
vn 0 -0.134419 0.990925
v 3.11443 1.29002 0.174992
vt 262.947 44.85
vt 267.717 44.85
vt 267.717 60.0133
f 45/35/11 46/36/11 42/37/11 41/38/11 

v 3.11443 8.47893 1.15017
vt -2.35558 333.816
v 3.11443 8.86977 1.20319
vt -0.268269 349.203
v 3.11443 8.86977 0.743186
vt -18.3785 349.203
v 3.11443 8.47893 0.690168
vt -20.4658 333.816
v 3.11443 8.06418 0.633907
vt -22.6808 317.487
v 3.11443 1.67168 -0.233237
vt -56.8203 65.814
v 3.11443 1.29002 -0.285008
vt -58.8586 50.7882
v 3.11443 -1.44382e-15 -0.46
vt -65.748 0
v 3.11443 -1.44382e-15 8.65974e-15
vt -47.6378 0
vt -40.7484 50.7882
vt -38.7101 65.814
v 3.11443 8.06418 1.09391
vt -4.57058 317.487
f 47/39/7 48/40/7 49/41/7 50/42/7 51/43/7 52/44/7 53/45/7 54/46/7 55/47/7 46/48/7 45/49/7 56/50/7 

v 3.56443 -1.44382e-15 8.65974e-15
vt 280.664 -6.40343
vn -1.26572e-15 -0.134419 0.990925
v 3.56443 8.86977 1.20319
vt 280.664 345.998
vt 262.947 345.998
vt 262.947 330.47
v 3.29557 8.47893 1.15017
vt 270.079 330.47
v 3.29557 8.06418 1.09391
vt 270.079 313.992
vt 262.947 313.992
vt 262.947 -6.40343
f 57/51/12 58/52/12 48/53/12 47/54/12 59/55/12 60/56/12 56/57/12 45/35/12 41/38/12 42/37/12 46/36/12 55/58/12 

v 3.56443 -1.44382e-15 -0.46
vt 65.748 0
v 3.56443 8.86977 0.743186
vt 18.3785 349.203
vt 0.268269 349.203
vt 47.6378 0
f 61/59/10 62/60/10 58/61/10 57/62/10 

vt -262.947 328.035
vn -7.1916e-17 0.134419 -0.990925
vt -262.947 343.564
vt -280.664 343.564
vt -280.664 -8.83779
vt -262.947 -8.83779
vt -262.947 42.4156
vt -267.717 42.4156
vt -267.717 57.579
vt -262.947 57.579
vt -262.947 311.557
v 3.29557 8.06418 0.633907
vt -270.079 311.557
v 3.29557 8.47893 0.690168
vt -270.079 328.035
f 50/63/13 49/64/13 62/65/13 61/66/13 54/67/13 53/68/13 43/69/13 44/70/13 52/71/13 51/72/13 63/73/13 64/74/13 

vt -262.947 210.731
vn -1.53488e-15 0.765247 -0.643737
v 3.16618 8.92 0.8029
vt -264.985 213.803
v 3.51268 8.92 0.8029
vt -278.627 213.803
vt -280.664 210.731
f 49/75/14 65/76/14 66/77/14 62/78/14 

v 3.16618 8.92 1.1571
vt -2.08268 434.74
vn -0.696507 0.71755 4.702e-18
vt -16.0276 434.74
vt -18.3785 431.901
vt -0.268269 431.901
f 67/79/15 65/80/15 49/81/15 48/82/15 

vt 264.985 16.0276
vt 264.985 2.08268
v 3.51268 8.92 1.1571
vt 278.627 2.08268
vt 278.627 16.0276
f 65/83/1 67/84/1 68/85/1 66/86/1 

vt 262.947 257.497
vn -1.73323e-15 0.67604 0.736865
vt 280.664 257.497
vt 278.627 260.181
vt 264.985 260.181
f 48/87/16 58/88/16 68/89/16 67/90/16 

vt -280.664 0.268269
vn 3.2085e-15 -1 -1.97034e-32
vt -262.947 0.268269
vt -262.947 18.3785
vt -280.664 18.3785
f 58/91/17 48/92/17 49/93/17 62/94/17 

vt 2.08268 44.6716
vn 0.696507 0.71755 -1.1755e-18
vt 0.268269 41.8323
vt 18.3785 41.8323
vt 16.0276 44.6716
f 68/95/18 58/96/18 62/97/18 66/98/18 

vt -262.947 47.6378
vt -262.947 65.748
vt -280.664 65.748
vt -280.664 47.6378
f 55/99/4 54/100/4 61/101/4 57/102/4 

vn 0 0.134419 -0.990925
f 53/68/19 52/71/19 44/70/19 43/69/19 

v -3.56443 -1.44382e-15 -0.46
vt 6.62973e-15 -8.83779
vn 9.99203e-17 0.134419 -0.990925
v -3.56443 8.86977 0.743186
vt -2.65685e-14 343.564
v -3.11443 8.86977 0.743186
vt -17.7165 343.564
v -3.11443 8.47893 0.690168
vt -17.7165 328.035
v -3.11443 8.06418 0.633907
vt -17.7165 311.557
v -3.11443 1.67168 -0.233237
vt -17.7165 57.579
v -3.11443 1.29002 -0.285008
vt -17.7165 42.4156
v -3.11443 -1.44382e-15 -0.46
vt -17.7165 -8.83779
f 69/103/20 70/104/20 71/105/20 72/106/20 50/63/20 51/72/20 73/107/20 74/108/20 52/71/20 53/68/20 75/109/20 76/110/20 

v -3.56443 -1.44382e-15 8.65974e-15
vn -1 8.13901e-17 -0
v -3.56443 8.86977 1.20319
f 77/47/21 78/40/21 70/41/21 69/46/21 

v -3.11443 8.47893 1.15017
vt 17.7165 330.47
vn 1.33227e-17 -0.134419 0.990925
v -3.11443 8.86977 1.20319
vt 17.7165 345.998
vt 2.84253e-14 345.998
vt 6.40477e-16 -6.40343
v -3.11443 -1.44382e-15 8.65974e-15
vt 17.7165 -6.40343
v -3.11443 1.29002 0.174992
vt 17.7165 44.85
v -3.11443 1.67168 0.226763
vt 17.7165 60.0133
v -3.11443 8.06418 1.09391
vt 17.7165 313.992
f 79/111/22 80/112/22 78/113/22 77/114/22 81/115/22 82/116/22 46/36/22 45/35/22 83/117/22 84/118/22 56/57/22 47/54/22 

vt 20.4658 333.816
vn 1 -5.14989e-16 3.92343e-16
vt 2.35558 333.816
f 72/119/23 71/60/23 80/61/23 79/120/23 

vt -17.7165 18.3785
vt -17.7165 0.268269
vt -2.84217e-14 0.268269
vt -2.84217e-14 18.3785
f 71/121/4 80/122/4 78/123/4 70/124/4 

v -3.11443 8.92 1.21
vt 6.37944e-14 351.181
vn 1 3.53964e-15 3.92343e-16
v -3.11443 8.92 0.75
vt 18.1102 351.181
f 85/125/24 80/61/24 71/60/24 86/126/24 

v -3.56443 8.92 1.21
vt 2.84217e-14 347.994
vn 3.45942e-31 -0.134419 0.990925
vt 2.84217e-14 345.998
vt 17.7165 347.994
f 87/127/25 78/128/25 80/112/25 85/129/25 

v -3.56443 8.92 0.75
vt -18.1102 351.181
vt -5.68434e-14 351.181
f 88/130/7 70/41/7 78/40/7 87/131/7 

vt -17.7165 345.56
vn 4.96091e-16 0.134419 -0.990925
vt -1.92208e-14 343.564
vt -1.93551e-14 345.56
f 86/132/26 71/105/26 70/133/26 88/134/26 

vt 2.84217e-14 18.1102
vt 2.84217e-14 5.68434e-14
vt 17.7165 5.68434e-14
vt 17.7165 18.1102
f 88/135/1 87/136/1 85/137/1 86/138/1 

vt 17.7165 20.4658
vt 17.7165 2.35558
vt 262.947 2.35558
vt 270.079 2.35558
vt 270.079 20.4658
vt 262.947 20.4658
f 72/139/1 79/140/1 47/141/1 59/142/1 64/143/1 50/144/1 

f 47/54/11 56/57/11 60/56/11 59/55/11 

vt -17.7165 4.57058
vt -17.7165 22.6808
vt -262.947 22.6808
vt -270.079 22.6808
vt -270.079 4.57058
vt -262.947 4.57058
f 84/145/4 73/146/4 51/147/4 63/148/4 60/149/4 56/150/4 

vt 4.57058 317.487
vt 22.6808 317.487
f 84/151/10 83/31/10 74/34/10 73/152/10 

vt 17.7165 56.8203
vt 17.7165 38.7101
vt 262.947 38.7101
vt 267.717 38.7101
vt 267.717 56.8203
vt 262.947 56.8203
f 74/153/1 83/154/1 45/155/1 41/156/1 44/157/1 52/158/1 

vn -7.90023e-15 0.134419 -0.990925
f 51/72/27 50/63/27 64/74/27 63/73/27 

f 59/120/10 60/151/10 63/152/10 64/119/10 

vt 0 47.6378
vt 0 65.748
vt -17.7165 65.748
vt -17.7165 47.6378
f 77/159/4 69/160/4 76/161/4 81/162/4 

f 76/59/10 75/33/10 82/32/10 81/62/10 

vt -17.7165 40.7484
vt -17.7165 58.8586
vt -262.947 58.8586
vt -267.717 58.8586
vt -267.717 40.7484
vt -262.947 40.7484
f 82/163/4 75/164/4 53/165/4 43/166/4 42/167/4 46/168/4 

g Mesh12 Structure_dossier1 Model

l 81 82

l 77 81

l 69 77

l 76 69

l 81 76

l 76 75

l 75 53

l 82 75

l 82 46

l 55 46

l 54 55

l 54 53

l 61 54

l 57 61

l 55 57

l 57 58

l 48 58

l 47 48

l 79 47

l 79 72

l 79 80

l 80 85

l 80 71

l 78 80

l 77 78

l 70 78

l 70 88

l 71 70

l 72 71

l 72 50

l 51 50

l 73 51

l 84 73

l 84 56

l 83 84

l 83 45

l 83 74

l 74 73

l 74 52

l 53 52

l 53 43

l 42 43

l 46 42

l 46 45

l 45 41

l 45 56

l 56 47

l 56 60

l 60 63

l 60 59

l 59 64

l 47 59

l 50 64

l 50 49

l 49 48

l 49 62

l 49 65

l 66 65

l 68 66

l 67 68

l 65 67

l 48 67

l 58 68

l 58 62

l 61 62

l 62 66

l 63 64

l 51 63

l 52 51

l 52 44

l 41 44

l 42 41

l 43 44

l 71 86

l 86 88

l 85 86

l 87 85

l 88 87

l 78 87

l 69 70

g Mesh13 Dossier1 Model

v -2.52224 8.06418 0.783907
vt 23.3146 8.26772
v -2.52224 8.06418 0.993907
vt 23.3146 0
v 2.52224 8.06418 0.993907
vt 221.916 0
v 2.52224 8.06418 0.783907
vt 221.916 8.26772
f 89/169/1 90/170/1 91/171/1 92/172/1 

v -2.52224 1.67168 0.126763
vt -34.1395 0
vt 0 251.673
vt -8.26772 251.673
v -2.52224 8.07224 0.724452
vt -10.6085 251.991
v -2.52224 1.67974 -0.142692
vt -44.748 0.317526
v -2.52224 1.67168 -0.0832368
vt -42.4072 0
f 93/173/7 90/174/7 89/175/7 94/176/7 95/177/7 96/178/7 

vt 23.3146 249.389
vt 23.3146 -4.58901
v 2.52224 1.67168 0.126763
vt 221.916 -4.58901
vt 221.916 249.389
f 90/179/11 93/180/11 97/181/11 91/182/11 

vt -23.3146 34.1395
vt -23.3146 42.4072
v 2.52224 1.67168 -0.0832368
vt -221.916 42.4072
vt -221.916 34.1395
f 93/183/4 96/184/4 98/185/4 97/186/4 

vt -221.916 42.0224
vn 0 -0.990925 -0.134419
vt -23.3146 42.0224
vt -23.3146 44.3846
v 2.52224 1.67974 -0.142692
vt -221.916 44.3846
f 98/187/28 96/188/28 95/189/28 99/190/28 

vt -23.3146 -5.70035
vt -23.3146 248.278
v 2.52224 8.07224 0.724452
vt -221.916 248.278
vt -221.916 -5.70035
f 95/191/19 94/192/19 100/193/19 99/194/19 

vt 23.3146 42.0224
vn 0 0.990925 0.134419
vt 221.916 42.0224
vt 221.916 44.3846
vt 23.3146 44.3846
f 89/195/29 92/196/29 100/197/29 94/198/29 

vt 34.1395 0
vt 42.4072 0
vt 44.748 0.317526
vt 10.6085 251.991
vt 8.26772 251.673
f 91/174/10 97/199/10 98/200/10 99/201/10 100/202/10 92/203/10 

g Mesh14 Dossier1 Model

l 93 90

l 96 93

l 96 98

l 96 95

l 94 95

l 94 100

l 89 94

l 90 89

l 90 91

l 91 92

l 97 91

l 98 97

l 98 99

l 100 99

l 92 100

l 89 92

l 95 99

l 93 97

g Mesh15 Coussin1 Model

v 3.42185 0.0074 -0.19167
vt -269.437 0
v -3.42185 0.0074 -0.19167
v -3.42185 0.0074 -7.00106
vt 0 268.086
v 3.42185 0.0074 -7.00106
vt -269.437 268.086
f 101/204/4 102/12/4 103/205/4 104/206/4 

vn 0 1.47359e-15 1
vt 269.437 0
v 3.42185 0.25235 -0.19167
vt 269.437 9.64368
v -3.42185 0.25235 -0.19167
vt 0 9.64368
f 102/12/30 101/207/30 105/208/30 106/209/30 

vt 268.086 0
v 3.42185 0.25235 -7.00106
vt 268.086 9.64368
vt 1.42109e-14 9.64368
f 101/12/10 104/210/10 107/211/10 105/212/10 

v -3.42185 0.25235 -7.00106
vt -269.437 9.64368
f 103/12/8 108/209/8 107/213/8 104/204/8 

vt -268.086 9.64368
vt -268.086 0
vt -1.42109e-14 9.64368
v -3.42185 0.25235 -6.89081
vt -263.746 9.64368
f 108/214/7 103/215/7 102/12/7 106/216/7 109/217/7 

vt -1.42109e-14 6.81911
vn -0.707107 0.707107 -3.52064e-19
v -3.3116 0.3626 -0.30192
vt -4.34057 12.9576
v -3.3116 0.3626 -6.89081
vt -263.746 12.9576
vt -268.086 6.81911
vt -263.746 6.81911
f 106/218/31 110/219/31 111/220/31 108/221/31 109/222/31 

vt 269.437 6.81911
vn 0 0.707107 0.707107
v 3.3116 0.3626 -0.30192
vt 265.097 12.9576
vt 4.34057 12.9576
vt 0 6.81911
f 105/223/32 112/224/32 110/225/32 106/226/32 

vt 268.086 -183.702
vn 0.707107 0.707107 -0
v 3.3116 0.3626 -6.89081
vt 263.746 -177.563
vt 4.34057 -177.563
vt 1.42109e-14 -183.702
f 107/227/33 113/228/33 112/229/33 105/230/33 

vt 0 -182.746
vn 0 0.707107 -0.707107
vt -4.34057 -176.608
vt -265.097 -176.608
vt -269.437 -182.746
f 108/231/34 111/232/34 113/233/34 107/234/34 

vt 4.34057 4.34057
vt 265.097 4.34057
vt 265.097 263.746
vt 4.34057 263.746
f 110/235/1 112/236/1 113/237/1 111/238/1 

g Mesh16 Coussin1 Model

l 103 102

l 103 108

l 104 103

l 104 107

l 101 104

l 101 105

l 102 101

l 102 106

l 105 106

l 107 105

l 108 107

l 111 108

l 111 113

l 110 111

l 112 110

l 113 112

l 107 113

l 105 112

l 106 110

l 106 109

l 109 108

