# Alias OBJ Model File
# Exported from SketchUp, (c) 2000-2012 Trimble Navigation Limited
# File units = meters

mtllib Glass.mtl

g Mesh1 Model

usemtl FrontColor
v -0.0564229 0.07 0.0564229
vt 1.2022 2.66321
vn -0.923422 0.0314687 0.382494
v -0.0368296 0.8831 0.0368296
vt 0.784725 34.6909
v -0.0520849 0.8831 3.60956e-16
vt -0.784725 34.6909
v -0.079794 0.07 3.60956e-16
vt -1.2022 2.66321
f 1/1/1 2/2/1 3/3/1 4/4/1 

v 0 0.07 0.079794
vn -0.382494 0.0314687 0.923422
v 0 0.8831 0.0520849
f 5/1/2 6/2/2 2/3/2 1/4/2 

v 0.0564229 0.07 0.0564229
vn 0.382494 0.0314687 0.923422
v 0.0368296 0.8831 0.0368296
f 7/1/3 8/2/3 6/3/3 5/4/3 

vn 0.923422 0.0314687 0.382494
v 0.079794 0.07 3.60956e-16
v 0.0520849 0.8831 3.60956e-16
f 7/4/4 9/1/4 10/2/4 8/3/4 

vt -1.2022 -2.16558
vn 0.219212 0.971443 0.0908007
v 0.275772 0 0.275772
vt -5.87585 -13.7805
v 0.39 0 3.60956e-16
vt 5.87585 -13.7805
vt 1.2022 -2.16558
f 7/5/5 11/6/5 12/7/5 9/8/5 

v 0 0 0.39
vn 0.0908007 0.971443 0.219212
f 13/6/6 11/7/6 7/8/6 5/5/6 

vt 0 -15.3543
vn 0 -1 -0
v -0.275772 0 0.275772
vt 10.8572 -10.8572
v -0.39 0 -0
vt 15.3543 0
v -0.275772 0 -0.275772
vt 10.8572 10.8572
v 0 0 -0.39
vt 0 15.3543
v 0.275772 0 -0.275772
vt -10.8572 10.8572
vt -15.3543 -1.42109e-14
vt -10.8572 -10.8572
f 13/9/7 14/10/7 15/11/7 16/12/7 17/13/7 18/14/7 12/15/7 11/16/7 

vn -0.0908007 0.971443 0.219212
f 14/6/8 13/7/8 5/8/8 1/5/8 

vt 0 -3.1415
vt 2.22137 -2.22137
vt 3.1415 -1.42109e-14
v -0.0564229 0.07 -0.0564229
vt 2.22137 2.22137
v 0 0.07 -0.079794
vt 0 3.1415
v 0.0564229 0.07 -0.0564229
vt -2.22137 2.22137
vt -3.1415 -1.42109e-14
vt -2.22137 -2.22137
f 5/17/7 1/18/7 4/19/7 19/20/7 20/21/7 21/22/7 9/23/7 7/24/7 

vn -0.219212 0.971443 0.0908007
f 15/6/9 14/7/9 1/8/9 4/5/9 

vn -0.219212 0.971443 -0.0908007
f 15/7/10 4/8/10 19/5/10 16/6/10 

vn -0.923422 0.0314687 -0.382494
v -0.0368296 0.8831 -0.0368296
f 3/2/11 22/3/11 19/4/11 4/1/11 

v -0.260424 0.9231 7.21911e-16
vt 3.92363 16.6688
vn -0.187978 -0.979082 -0.0778631
v -0.184148 0.9231 -0.184148
vt -3.92363 16.6688
vt -0.784725 8.92892
vt 0.784725 8.92892
f 23/25/12 24/26/12 22/27/12 3/28/12 

v -0.404908 1.0331 7.21911e-16
vt 6.10046 37.2321
vn -0.587543 -0.771729 -0.243368
v -0.286313 1.0331 -0.286313
vt -6.10046 37.2321
vt -3.92363 30.4223
vt 3.92363 30.4223
f 25/29/13 26/30/13 24/31/13 23/32/13 

vt 6.10046 38.4373
vn -0.916183 0.128809 -0.379495
v -0.303681 1.7531 7.21911e-16
vt 4.57534 67.0219
v -0.214735 1.7531 -0.214735
vt -4.57534 67.0219
vt -6.10046 38.4373
f 25/33/14 27/34/14 28/35/14 26/36/14 

v -0.286313 1.0331 0.286313
vn -0.916183 0.128809 0.379495
v -0.214735 1.7531 0.214735
f 29/33/15 30/34/15 27/35/15 25/36/15 

v -1.26334e-15 1.0331 0.404908
vn -0.379495 0.128809 0.916183
v -9.02389e-16 1.7531 0.303681
f 31/33/16 32/34/16 30/35/16 29/36/16 

v 0.286313 1.0331 0.286313
vn 0.379495 0.128809 0.916183
v 0.214735 1.7531 0.214735
f 33/33/17 34/34/17 32/35/17 31/36/17 

vn 0.916183 0.128809 0.379495
v 0.404908 1.0331 7.21911e-16
v 0.303681 1.7531 7.21911e-16
f 33/36/18 35/33/18 36/34/18 34/35/18 

v 0.184148 0.9231 0.184148
vn 0.587543 -0.771729 0.243368
v 0.260424 0.9231 7.21911e-16
f 37/31/19 38/32/19 35/29/19 33/30/19 

vn 0.187978 -0.979082 0.0778631
f 8/27/20 10/28/20 38/25/20 37/26/20 

v 0.0368296 0.8831 -0.0368296
vn 0.187978 -0.979082 -0.0778631
v 0.184148 0.9231 -0.184148
f 39/28/21 40/25/21 38/26/21 10/27/21 

v -5.41434e-16 0.9231 -0.260424
vn 0.0778631 -0.979082 -0.187978
v 0 0.8831 -0.0520849
f 41/25/22 40/26/22 39/27/22 42/28/22 

v -9.02389e-16 1.0331 -0.404908
vn 0.243368 -0.771729 -0.587543
v 0.286313 1.0331 -0.286313
f 43/29/23 44/30/23 40/31/23 41/32/23 

vn 0.379495 0.128809 -0.916183
v -7.21911e-16 1.7531 -0.303681
v 0.214735 1.7531 -0.214735
f 43/33/24 45/34/24 46/35/24 44/36/24 

vn -0.379495 0.128809 -0.916183
f 26/33/25 28/34/25 45/35/25 43/36/25 

vt -8.45413 8.45413
vn 0 1 -0
v -0.197806 1.7531 -0.197806
vt -7.78765 7.78765
vt -2.84217e-14 11.9559
f 28/37/26 47/38/26 45/39/26

v -0.27974 1.7531 7.21911e-16
vt -11.0134 -2.84217e-14
f 28/37/26 48/40/26 47/38/26

vt -11.9559 -2.84217e-14
f 48/40/26 28/37/26 27/41/26

vt -8.45413 -8.45413
f 30/42/26 48/40/26 27/41/26

v -0.197806 1.7531 0.197806
vt -7.78765 -7.78765
f 48/40/26 30/42/26 49/43/26

vt -3.55271e-14 -11.9559
f 49/43/26 30/42/26 32/44/26

v -7.21911e-16 1.7531 0.27974
vt -2.84217e-14 -11.0134
f 49/43/26 32/44/26 50/45/26

vt 8.45413 -8.45413
f 50/45/26 32/44/26 34/46/26

v 0.197806 1.7531 0.197806
vt 7.78765 -7.78765
f 50/45/26 34/46/26 51/47/26

v 0.27974 1.7531 7.21911e-16
vt 11.0134 -2.84217e-14
f 51/47/26 34/46/26 52/48/26

vt 11.9559 -2.84217e-14
f 52/48/26 34/46/26 36/49/26

vt 8.45413 8.45413
f 46/50/26 52/48/26 36/49/26

v 0.197806 1.7531 -0.197806
vt 7.78765 7.78765
f 46/50/26 53/51/26 52/48/26

f 45/39/26 53/51/26 46/50/26

v -7.21911e-16 1.7531 -0.27974
vt -2.84217e-14 11.0134
f 45/39/26 54/52/26 53/51/26

f 45/39/26 47/38/26 54/52/26

v -1.08287e-15 1.0331 -0.378898
vt 5.70858 38.6084
vn 0.379623 -0.126218 0.916491
vt 4.21465 67.1834
vt -4.21465 67.1834
v -0.267921 1.0331 -0.267921
vt -5.70858 38.6084
f 55/53/27 54/54/27 47/55/27 56/56/27 

v 0.267921 1.0331 -0.267921
vn -0.379623 -0.126218 0.916491
f 57/53/28 53/54/28 54/55/28 55/56/28 

v 0.378898 1.0331 1.08287e-15
vn -0.916491 -0.126218 0.379623
f 58/53/29 52/54/29 53/55/29 57/56/29 

v 0.267921 1.0331 0.267921
vn -0.916491 -0.126218 -0.379623
f 59/53/30 51/54/30 52/55/30 58/56/30 

v -1.08287e-15 1.0331 0.378898
vn -0.379623 -0.126218 -0.916491
f 60/53/31 50/54/31 51/55/31 59/56/31 

v -0.267921 1.0331 0.267921
vn 0.379623 -0.126218 -0.916491
f 61/53/32 49/54/32 50/55/32 60/56/32 

vn 0.916491 -0.126218 -0.379623
v -0.378898 1.0331 1.08287e-15
f 61/56/33 62/53/33 48/54/33 49/55/33 

vt 5.70858 34.008
vn 0.511874 0.832484 -0.212025
vt -5.70858 34.008
v -0.141421 0.9231 0.141421
vt -3.01326 26.1915
v -0.2 0.9231 7.21911e-16
vt 3.01326 26.1915
f 62/57/34 61/58/34 63/59/34 64/60/34 

vn 0.212025 0.832484 -0.511874
v -5.41434e-16 0.9231 0.2
f 61/57/35 60/58/35 65/59/35 63/60/35 

vn -0.212025 0.832484 -0.511874
v 0.141421 0.9231 0.141421
f 60/57/36 59/58/36 66/59/36 65/60/36 

vn -0.511874 0.832484 -0.212025
v 0.2 0.9231 7.21911e-16
f 66/60/37 59/57/37 58/58/37 67/59/37 

v 0.141421 0.9231 -0.141421
vn -0.511874 0.832484 0.212025
f 68/59/38 67/60/38 58/57/38 57/58/38 

v 0.0282843 0.8831 -0.0282843
vt -0.602651 10.4859
vn -0.241321 0.965284 0.0999584
v 0.04 0.8831 3.60956e-16
vt 0.602651 10.4859
vt 3.01326 16.5149
vt -3.01326 16.5149
f 69/61/39 70/62/39 67/63/39 68/64/39 

v 0 0.8831 0.04
vt 0 -1.5748
v 0.0282843 0.8831 0.0282843
vt 1.11355 -1.11355
vt 1.5748 -1.42109e-14
vt 1.11355 1.11355
v 0 0.8831 -0.04
vt 0 1.5748
v -0.0282843 0.8831 -0.0282843
vt -1.11355 1.11355
v -0.04 0.8831 3.60956e-16
vt -1.5748 -1.42109e-14
v -0.0282843 0.8831 0.0282843
vt -1.11355 -1.11355
f 71/65/26 72/66/26 70/67/26 69/68/26 73/69/26 74/70/26 75/71/26 76/72/26 

vn -0.0999584 0.965284 -0.241321
f 65/63/40 66/64/40 72/61/40 71/62/40 

vn -0.241321 0.965284 -0.0999584
f 72/62/41 66/63/41 67/64/41 70/61/41 

vn 0.0999584 0.965284 -0.241321
f 63/63/42 65/64/42 71/61/42 76/62/42 

vn 0.241321 0.965284 -0.0999584
f 64/63/43 63/64/43 76/61/43 75/62/43 

vn 0.241321 0.965284 0.0999584
v -0.141421 0.9231 -0.141421
f 64/64/44 75/61/44 74/62/44 77/63/44 

vn 0.0999584 0.965284 0.241321
v -5.41434e-16 0.9231 -0.2
f 77/64/45 74/61/45 73/62/45 78/63/45 

vn -0.0999584 0.965284 0.241321
f 78/64/46 73/61/46 69/62/46 68/63/46 

vn -0.212025 0.832484 0.511874
f 55/58/47 78/59/47 68/60/47 57/57/47 

vn 0.212025 0.832484 0.511874
f 56/58/48 77/59/48 78/60/48 55/57/48 

vn 0.511874 0.832484 0.212025
f 62/58/49 64/59/49 77/60/49 56/57/49 

vn 0.916491 -0.126218 0.379623
f 62/56/50 56/53/50 47/54/50 48/55/50 

vn 0.916183 0.128809 -0.379495
f 35/36/51 44/33/51 46/34/51 36/35/51 

vn 0.587543 -0.771729 -0.243368
f 40/32/52 44/29/52 35/30/52 38/31/52 

vn -0.243368 -0.771729 -0.587543
f 26/29/53 43/30/53 41/31/53 24/32/53 

vn -0.0778631 -0.979082 -0.187978
f 24/25/54 41/26/54 42/27/54 22/28/54 

vn -0.382494 0.0314687 -0.923422
f 19/1/55 22/2/55 42/3/55 20/4/55 

vn 0.382494 0.0314687 -0.923422
f 20/1/56 42/2/56 39/3/56 21/4/56 

vn 0.923422 0.0314687 -0.382494
f 10/3/57 9/4/57 21/1/57 39/2/57 

vn 0.219212 0.971443 -0.0908007
f 21/8/58 9/5/58 12/6/58 18/7/58 

vn 0.0908007 0.971443 -0.219212
f 20/8/59 21/5/59 18/6/59 17/7/59 

vn -0.0908007 0.971443 -0.219212
f 16/7/60 19/8/60 20/5/60 17/6/60 

v -7.21911e-16 0.9231 0.260424
vn 0.0778631 -0.979082 0.187978
f 79/26/61 6/27/61 8/28/61 37/25/61 

v -0.184148 0.9231 0.184148
vn -0.0778631 -0.979082 0.187978
f 80/26/62 2/27/62 6/28/62 79/25/62 

vn -0.187978 -0.979082 0.0778631
f 23/26/63 3/27/63 2/28/63 80/25/63 

vn -0.587543 -0.771729 0.243368
f 25/30/64 23/31/64 80/32/64 29/29/64 

vn -0.243368 -0.771729 0.587543
f 29/30/65 80/31/65 79/32/65 31/29/65 

vn 0.243368 -0.771729 0.587543
f 31/30/66 79/31/66 37/32/66 33/29/66 

g Mesh2 Model

l 1 2

l 4 1

l 4 3

l 19 4

l 19 22

l 16 19

l 17 16

l 17 20

l 18 17

l 12 18

l 11 12

l 13 11

l 13 5

l 14 13

l 14 1

l 15 14

l 15 4

l 16 15

l 1 5

l 5 6

l 5 7

l 7 8

l 7 9

l 11 7

l 9 10

l 9 21

l 12 9

l 21 39

l 21 20

l 18 21

l 20 42

l 20 19

l 39 42

l 39 40

l 10 39

l 10 38

l 8 10

l 8 37

l 6 8

l 6 79

l 2 6

l 3 2

l 22 3

l 22 24

l 42 22

l 42 41

l 40 41

l 40 44

l 38 40

l 38 35

l 37 38

l 79 37

l 79 31

l 80 79

l 2 80

l 23 80

l 3 23

l 23 25

l 24 23

l 24 26

l 41 24

l 41 43

l 44 43

l 44 46

l 35 44

l 35 36

l 33 35

l 33 34

l 31 33

l 31 32

l 29 31

l 80 29

l 25 29

l 25 27

l 26 25

l 26 28

l 43 26

l 43 45

l 46 45

l 36 46

l 34 36

l 32 34

l 30 32

l 29 30

l 27 30

l 28 27

l 45 28

l 37 33

g Mesh3 Model

l 72 71

l 70 72

l 69 70

l 73 69

l 74 73

l 75 74

l 76 75

l 71 76

l 71 65

l 66 65

l 72 66

l 66 59

l 67 66

l 70 67

l 67 58

l 68 67

l 69 68

l 68 57

l 78 68

l 73 78

l 77 78

l 74 77

l 64 77

l 75 64

l 64 62

l 63 64

l 76 63

l 65 63

l 65 60

l 60 50

l 60 61

l 59 60

l 58 59

l 57 58

l 57 53

l 55 57

l 55 54

l 78 55

l 56 55

l 77 56

l 62 56

l 62 48

l 61 62

l 61 49

l 63 61

l 49 48

l 50 49

l 51 50

l 52 51

l 53 52

l 54 53

l 47 54

l 56 47

l 48 47

l 58 52

l 59 51

