# Alias OBJ Model File
# Exported from SketchUp, (c) 2000-2012 Trimble Navigation Limited
# File units = meters

mtllib Plate_Break.mtl

g Mesh1 Plate_3_1 Model

usemtl FrontColor
v 1.72695 0.23544 0.00185336
vt 27.8622 36.9228
vn 0.329386 -0.934225 0.13685
v 1.60969 0.23544 0.28409
vt 15.8297 36.9228
v 0.933348 7.99517e-14 0.304722
vt 4.86319 10.9353
v 1.05948 -3.60956e-16 0.00113703
vt 17.8059 10.9353
f 1/1/1 2/2/1 3/3/1 4/4/1 

vt 43.9195 11.924
vn -8.03129e-14 1 1.25391e-14
v 1.4218 0.23544 -0.73708
vt 31.9058 41.0158
v 1.36622 0.23544 -0.659218
vt 29.7175 37.9504
v 1.63918 0.23544 0.00175916
vt 40.4638 11.9277
v 1.52816 0.23544 0.268964
vt 36.093 1.4078
vt 39.3029 0.812296
f 1/5/2 5/6/2 6/7/2 7/8/2 8/9/2 2/10/2 

vt 4.31382 19.495
vn 0.329679 -0.934225 -0.136143
v 0.959064 2.05745e-14 -0.242024
vt 14.6713 19.495
vt 25.7323 45.4824
vt -5.7425 45.4824
f 4/11/3 9/12/3 5/13/3 1/14/3 

vt -12.6753 -4.25116e-25
vn -9.35964e-14 -1 9.77665e-14
v 0.611396 7.99517e-14 0.244994
vt 2.95944e-25 2.35153
vt -13.6877 21.5255
vt -17.6411 11.9522
f 3/15/4 10/16/4 9/17/4 4/18/4 

v 0.898985 0.0654 0.257762
vt 10.7952 4.22052
vn -0.155711 0.520859 0.839321
v 0.663799 0.0654 0.21413
vt 1.37791 4.22052
vt -0.428937 1.20427
vt 12.4626 1.20427
vt 38.4954 12.0628
vt 35.2307 12.0628
f 11/19/5 12/20/5 10/21/5 3/22/5 2/23/5 8/24/5 

v 1.00563 0.0654 0.00107924
vt 15.521 11.9545
vn -5.79675e-14 1 -1.56402e-13
v 0.936094 0.0654 -0.167304
vt 12.7834 18.5837
vt 2.06311 3.56663
vt 11.3224 1.84884
f 13/25/6 14/26/6 12/27/6 11/28/6 

vt 4.42004 42.8732
vn -0.257853 0.960299 0.106482
vt -23.7342 42.8732
vt -12.2974 18.8764
vt -5.12515 18.8764
f 7/29/7 6/30/7 14/31/7 13/32/7 

vt -1.91389 -0.483038
vn -0.76133 0.353544 -0.543492
vt -4.10155 2.26953
vt -22.5525 2.26953
vt -48.1539 9.42621
vt -51.9203 9.42621
vt -25.4722 -0.483038
f 10/33/8 12/34/8 14/35/8 6/36/8 5/37/8 9/38/8 

vt -16.9946 10.0779
vn -0.257624 0.960299 -0.107035
vt -6.05146 10.0779
vt -15.148 34.0747
vt -26.5398 34.0747
f 13/39/9 11/40/9 8/41/9 7/42/9 

g Mesh2 Plate_5_1 Model

v -1.63918 0.23544 -0.00175916
vt 31.5333 -13.5094
vn 0.257853 0.960299 -0.106482
v -1.29437 0.23544 0.833202
vt -4.03179 -13.5094
v -0.848382 0.0654 0.379703
vt 5.76873 -37.5062
v -1.00563 0.0654 -0.00107924
vt 21.9881 -37.5062
f 15/43/10 16/44/10 17/45/10 18/46/10 

v -1.72695 0.23544 -0.00185336
vt -1.65398e-12 35.5471
vn 1.78437e-13 1 -6.00345e-14
v -1.35409 0.23544 0.901042
vt 14.6794 -5.56477e-13
vt 17.0307 2.67088
vt 3.45576 35.5434
v -1.51694 0.23544 -0.295964
vt 8.26811 47.1262
v -1.59847 0.23544 -0.31109
vt 5.05822 47.7217
f 19/47/11 20/48/11 16/49/11 15/50/11 21/51/11 22/52/11 

v -1.05948 1.48304e-16 -0.00113703
vt -22.7995 -35.3568
vn -0.329679 -0.934225 0.136143
v -0.879279 -1.08287e-15 0.435229
vt -4.21246 -35.3568
vt 5.60301 -9.36938
vt -32.8558 -9.36938
f 23/53/12 24/54/12 20/55/12 19/56/12 

v -1.03485 8.07601e-14 -0.0604185
vt -27.2481 37.8528
vn 1.18341e-13 -1 -1.4393e-13
v -0.526042 9.04341e-14 0.0339756
vt -47.2799 34.1365
vt -33.3729 18.3391
vt -26.2784 35.5189
f 25/57/13 26/58/13 24/59/13 23/60/13 

v -0.969175 0.0654 -0.08882
vt -22.2246 24.9903
vn 0.155711 -0.520859 -0.839321
v -0.510789 0.0654 -0.00378009
vt -40.5792 24.9903
vt -40.2599 21.974
vt -19.8863 21.974
vt 3.73146 32.8325
vt 0.466804 32.8325
f 27/61/14 28/62/14 26/63/14 25/64/14 22/65/14 21/66/14 

vt 28.3985 35.5166
vn -2.5154e-14 1 9.30198e-16
vt 34.5893 20.5252
vt 47.8804 35.6229
vt 29.8337 38.9709
f 18/67/15 17/68/15 28/69/15 27/70/15 

vt 56.8636 -2.61408
vn 0.735094 0.202149 0.647127
vt 58.3761 0.0150005
vt 38.2615 0.0150005
vt 13.2581 6.85061
vt 9.69969 6.85061
vt 35.8169 -2.61408
f 26/71/16 28/72/16 17/73/16 16/74/16 20/75/16 24/76/16 

vt 43.6942 -11.3798
vn 0.257624 0.960299 0.107035
vt 47.4349 -11.3798
vt 46.6918 12.617
vt 34.1491 12.617
f 18/77/17 27/78/17 21/79/17 15/80/17 

vt -32.8266 16.0476
vn -0.329386 -0.934225 -0.13685
vt -46.0102 16.0476
vt -45.4103 -9.93979
vt -42.8829 -9.93979
f 19/81/18 22/82/18 25/83/18 23/84/18 

g Mesh3 Plate_7_1 Model

v -1.22245 0.23544 1.21983
vt 5.18287 11.584
vn 8.08387e-14 1 -1.11517e-13
v -0.514255 0.23544 1.51406
vt 33.0645 -1.03368e-12
v -0.468099 0.23544 1.44542
vt 34.8817 2.70232
v -1.16032 0.23544 1.15783
vt 7.62909 14.025
vt 2.35127 26.8056
v -1.35409 0.23544 0.901042
vt -7.49318e-13 24.1347
f 29/85/19 30/86/19 31/87/19 32/88/19 16/89/19 33/90/19 

v -0.749969 -2.60058e-17 0.748361
vt 10.398 -34.5328
vn -0.13685 -0.934225 0.329386
v -0.305571 -1.0387e-14 0.932996
vt 29.344 -34.5328
v -0.17275 0.0438874 1.11266
vt 36.8868 -29.6886
vt 30.5341 -8.54541
vt 0.341718 -8.54541
f 34/91/20 35/92/20 36/93/20 30/94/20 29/95/20 

v -0.879279 -1.10196e-15 0.435229
vt -18.6935 42.4738
vn 5.17469e-14 -1 -9.66639e-14
v -0.719036 4.52944e-14 0.253203
vt -25.0023 49.6402
vt -41.2804 22.8767
vt -23.7845 30.1458
f 37/96/21 38/97/21 35/98/21 34/99/21 

v -0.848382 0.0654 0.379703
vt -46.6771 5.46607
vn -0.735094 -0.202149 -0.647127
v -0.705631 0.0654 0.217547
vt -55.1825 5.46607
vt -53.7801 2.83699
vt -44.2325 2.83699
vt -18.1152 12.3017
vt -21.6736 12.3017
f 39/100/22 40/101/22 38/102/22 37/103/22 33/104/22 16/105/22 

v -0.71185 0.0654 0.710324
vt 25.2852 31.6433
vn 4.27985e-14 1 -2.09739e-14
v -0.302463 0.0654 0.880413
vt 41.4028 24.9469
vt 25.53 51.0439
vt 19.9099 44.6598
f 41/106/23 42/107/23 40/108/23 39/109/23 

vt -31.1753 -12.6624
vn 0.107035 0.960299 -0.257624
v -0.166736 0.101577 1.07165
vt -36.4861 -31.5539
vt -28.6627 -36.6593
vt -11.2094 -36.6593
vt -1.66418 -12.6624
f 31/110/24 43/111/24 42/112/24 41/113/24 32/114/24 

vt 18.4505 0.726778
vn 0.792598 0.296181 0.532978
vt 39.0673 -7.16893
vt 40.539 -4.79101
vt 21.707 0.726778
f 30/115/25 36/116/25 43/117/25 31/118/25 

vt -9.41048 24.0506
vn 0.776659 -0.416723 -0.47238
vt -10.6666 21.5521
vt -1.90609 19.6514
vt 29.419 19.6514
vt 30.3441 22.4839
vt -0.20097 22.4839
f 43/119/26 36/120/26 35/121/26 38/122/26 40/123/26 42/124/26 

vt 19.5964 -33.3232
vt 33.6792 -33.3232
vt 23.8787 -9.32634
vt 10.0512 -9.32634
f 41/125/10 39/126/10 16/127/10 32/128/10 

vt -8.72875 -5.29989
vt -22.3074 -5.29989
vt -32.1229 -31.2873
vt -18.7851 -31.2873
f 29/129/12 33/130/12 37/131/12 34/132/12 

g Mesh4 Plate_10_1 Model

v 1.21983 0.23544 1.22245
vt 35.9145 1.83805
vn 0.136143 -0.934225 0.329679
v 0.376666 0.23544 1.57064
vt -1.11022e-16 1.83805
v 0.957721 0.104549 0.959779
vt 30.3238 -12.6094
f 44/133/27 45/134/27 46/135/27

vt 33.1954 13.7083
vn 5.00789e-14 1 6.19993e-14
v 1.51741 0.23544 0.506199
vt 44.9112 41.9071
v 1.374 0.23544 0.64002
vt 39.265 36.6385
v 1.15783 0.23544 1.16032
vt 30.7544 16.1545
v 0.545342 0.23544 1.41325
vt 6.64078 6.19658
vt -2.58065e-13 3.19493e-13
f 44/136/28 47/137/28 48/138/28 49/139/28 50/140/28 45/141/28 

vt 25.3954 25.563
vt 30.9861 11.1156
vt 55.9312 25.563
f 44/142/1 46/143/1 47/144/1

vt -53.704 4.81134
vn -0.636975 0.358148 -0.682637
vt -61.4265 4.81134
vt -33.133 -0.707958
vt 0 4.81134
vt -9.08282 4.81134
v 0.9743 0.165704 0.976393
vt -33.164 1.87077
f 48/145/29 47/146/29 46/147/29 45/148/29 50/149/29 51/150/29 

vt -34.592 -1.62835
vn -0.106482 0.960299 -0.257853
vt -30.6774 -11.4698
vt -8.50319 -1.62835
f 49/151/30 51/152/30 50/153/30

vt -26.7178 22.7588
vt -48.8995 22.7588
vt -30.6324 12.9173
f 49/154/9 48/155/9 51/156/9

g Mesh5 Plate_6_1 Model

v -0.0852926 0.0654 0.970641
vt 18.5624 -2.749
vt 13.4731 -1.25783
v -0.17275 0.0438874 1.11266
vt 12.0014 -3.63574
v -0.0945069 -1.90404e-14 1.02069
vt 16.725 -5.44476
v 0.343777 6.09901e-14 0.36891
vt 47.6476 -5.44476
v 0.363643 0.0654 0.303023
vt 50.2366 -2.749
f 52/157/25 43/158/25 53/159/25 54/160/25 55/161/25 56/162/25 

vt -20.8958 -13.4328
v -0.302463 0.0654 0.880413
vt -11.6373 -13.4328
vt -19.4606 -8.32736
f 52/163/24 57/164/24 43/165/24

v -0.510789 0.0654 -0.00378009
vt 8.19867 43.9541
vn -6.24186e-14 1 7.84043e-14
v -0.705631 0.0654 0.217547
vt 0.527726 35.2405
vt 16.4005 9.1434
vt 24.9505 5.59112
vt 42.6251 31.8753
v 0.314799 0.0654 0.149383
vt 40.7021 37.9241
f 58/166/31 59/167/31 57/168/31 52/169/31 56/170/31 60/171/31 

v -0.526042 9.04245e-14 0.0339756
vt -36.8964 4.51968
v -0.719036 4.53039e-14 0.253203
vt -25.3975 4.51968
vt -26.7998 7.14876
vt -38.4089 7.14876
f 61/172/22 62/173/22 59/174/22 58/175/22 

vt -24.5877 3.6208
vn 2.05839e-14 -1 -1.11429e-13
v -0.305571 -1.03775e-14 0.932996
vt -16.2781 7.07321
vt -5.21441e-26 33.8367
vt -7.59816 42.4677
v 0.28514 8.1279e-14 0.184466
vt -39.5345 36.5429
vt -41.843 29.2813
f 54/176/32 63/177/32 62/178/32 61/179/32 64/180/32 55/181/32 

vt 21.3168 -11.937
vt 19.8613 -7.09275
vt 12.3185 -11.937
f 54/182/20 53/183/20 63/184/20

vt 11.1763 9.2281
vn -0.776659 0.416723 0.47238
vt 9.92013 11.7266
vt 0.710621 10.1598
vt -29.8345 10.1598
vt -28.9093 7.32735
vt 2.41574 7.32735
f 53/185/33 43/186/33 57/187/33 59/188/33 62/189/33 63/190/33 

vt -0.0435296 25.4867
vt -33.1016 25.4867
vt -32.2055 22.4705
vt 0.27576 22.4705
f 58/191/14 60/192/14 64/193/14 61/194/14 

vt 23.81 27.9132
vn 0.819095 -0.51115 -0.260403
vt 17.4628 27.9132
vt 15.2278 24.9174
vt 22.8474 24.9174
f 60/195/34 56/196/34 55/197/34 64/198/34 

g Mesh6 Plate_4_1 Model

v 0.00175916 0.23544 -1.63918
vt -13.9014 61.2487
vn -0.107035 0.960299 0.257624
v 0.00141817 0.150163 -1.32144
vt -9.11436 49.2139
v 0.382173 0.0654 -0.847295
vt 11.8909 37.2518
v 0.71185 0.0654 -0.710324
vt 25.946 37.2518
v 1.16032 0.23544 -1.15783
vt 35.4912 61.2487
f 65/199/35 66/200/35 67/201/35 68/202/35 69/203/35 

vt 33.366 53.5062
vn 0.106482 0.960299 0.257853
v -0.223924 0.23544 -1.54598
vt 23.753 53.5062
vt 28.579 41.4715
f 65/204/36 70/205/36 66/206/36

v 0.00185336 0.23544 -1.72695
vt 10.6042 65.2022
vn 1.07669e-14 1 -1.42498e-14
v -0.267492 0.23544 -1.61572
vt -9.98019e-14 60.8232
vt 1.71526 58.0773
vt 10.6004 61.7465
vt 56.2129 42.7958
v 1.36622 0.23544 -0.659218
vt 64.3194 23.1655
v 1.4218 0.23544 -0.73708
vt 66.5077 26.2309
v 1.22245 0.23544 -1.21983
vt 58.6591 45.2368
f 71/207/37 72/208/37 70/209/37 65/210/37 69/211/37 73/212/37 74/213/37 75/214/37 

vt -34.6885 55.8267
vn -0.136143 -0.934225 -0.329679
v 0.00148143 0.113195 -1.38039
vt -29.467 42.3336
vt -23.2157 55.8267
f 71/215/38 76/216/38 72/217/38

v 0.749969 -1.80478e-16 -0.748361
vt -26.7573 37.3715
vn 0.13685 -0.934225 -0.329386
v 0.424847 4.98119e-14 -0.88344
vt -12.8964 37.3715
vt 10.0024 49.8658
vt 15.2239 63.3589
vt -36.8136 63.3589
f 77/218/39 78/219/39 76/220/39 71/221/39 75/222/39 

v 0.959064 2.05745e-14 -0.242024
vt -48.2896 6.74054
vn -2.00842e-13 -1 1.20512e-13
v 0.88784 4.4939e-14 -0.142253
vt -45.4855 2.81252
vt -27.2574 31.9931
vt -40.0575 26.6751
f 79/223/40 80/224/40 78/225/40 77/226/40 

v 0.936094 0.0654 -0.167304
vt 30.6234 15.2632
vn 0.76133 -0.353544 0.543492
v 0.867213 0.0654 -0.0708146
vt 25.9559 15.2632
vt 28.7169 12.5106
vt 33.5431 12.5106
vt 59.9912 22.4198
vt 56.2248 22.4198
f 81/227/41 82/228/41 80/229/41 79/230/41 74/231/41 73/232/41 

vt 38.5568 25.1775
vn -2.23711e-13 1 7.54645e-15
vt 25.5774 30.5701
vt 44.6734 1.94306e-14
vt 47.3853 3.79879
f 68/233/42 67/234/42 82/235/42 81/236/42 

vt -48.3481 -13.7396
vn -0.647431 -0.645966 0.404427
vt -51.5857 -13.7396
vt -38.1174 -20.0443
vt -12.6934 -25.8823
vt 21.7126 -25.8823
vt 23.6677 -22.5093
vt -12.3766 -22.5093
vt -36.1506 -18.1377
f 70/237/43 72/238/43 76/239/43 78/240/43 80/241/43 82/242/43 67/243/43 66/244/43 

vt -8.55453 44.1696
vt 14.5754 44.1696
vt 3.13856 68.1664
vt -18.0997 68.1664
f 68/245/7 81/246/7 73/247/7 69/248/7 

vt 19.4222 70.0888
vt -1.14047 70.0888
vt -12.2015 44.1014
vt 9.36586 44.1014
f 75/249/3 74/250/3 79/251/3 77/252/3 

g Mesh7 Plate_9_1 Model

v 0.710324 0.0654 0.71185
vt -23.0633 -10.7987
v 0.518764 0.0654 0.790956
vt -14.9039 -10.7987
v 0.739958 0.203801 1.21505
vt -16.58 8.73315
v 0.9743 0.165704 0.976393
vt -28.6939 3.35671
f 83/253/30 84/254/30 85/255/30 86/256/30 

v 0.898985 0.0654 0.257762
vt 24.1671 37.7657
vn -9.34729e-14 1 1.29021e-13
v 0.314799 0.0654 0.149383
vt 1.16767 42.0326
vt 9.19783 16.7738
vt 16.7395 19.8882
f 87/257/44 88/258/44 84/259/44 83/260/44 

v 0.933348 7.98163e-14 0.304722
vt -18.5404 20.8184
v 0.28514 8.12827e-14 0.184466
vt 7.41513 20.8184
vt 6.51899 23.8346
vt -16.8729 23.8346
v 1.52816 0.23544 0.268964
vt -41.3084 31.6769
v 1.60969 0.23544 0.28409
vt -44.5731 31.6769
f 89/261/14 90/262/14 88/263/14 87/264/14 91/265/14 92/266/14 

v 0.748361 -4.06075e-16 0.749969
vt -18.2371 18.3874
vn 1.67859e-14 -1 -1.47541e-13
v 0.497815 -6.13625e-15 0.853434
vt -8.37304 14.314
vt -5.77719e-26 40.6513
vt -25.52 35.9168
f 93/267/45 94/268/45 90/269/45 89/270/45 

v 0.957721 0.104549 0.959779
vt 28.3403 2.16559
v 0.71304 0.159667 1.21701
vt 15.571 8.24937
vt 13.2027 -9.37438
vt 23.8747 -9.37438
f 95/271/27 96/272/27 94/273/27 93/274/27 

vt 26.3003 10.2399
vn 0.636975 -0.358148 0.682637
vt 13.1446 11.8464
vt 12.3171 9.98538
vt 26.2693 7.66122
v 1.51741 0.23544 0.506199
vt 54.5628 13.1805
v 1.374 0.23544 0.64002
vt 46.8403 13.1805
f 86/275/46 85/276/46 96/277/46 95/278/46 97/279/46 98/280/46 

vt 5.10403 13.6092
vn -0.819095 0.51115 0.260403
vt 5.35149 15.6308
vt -13.1987 9.29118
vt -39.7032 9.29118
vt -38.7407 6.29545
vt -11.1045 6.29545
f 96/281/47 85/282/47 84/283/47 88/284/47 90/285/47 94/286/47 

vt 53.9259 35.1303
vt 44.4568 35.1303
vt 19.5117 20.6828
vt 23.9773 9.14284
vt 42.9595 9.14284
f 92/287/1 97/288/1 95/289/1 93/290/1 89/291/1 

vt 48.9378 37.3246
vn -7.17361e-13 1 -3.54826e-13
vt 42.8684 22.7161
vt 48.5146 27.9847
vt 52.1477 36.7291
f 91/292/48 98/293/48 97/294/48 92/295/48 

vt -24.7887 8.23536
vt -19.1581 22.3907
vt -37.4251 32.2322
vt -53.2443 32.2322
vt -44.1477 8.23536
f 83/296/9 86/297/9 98/298/9 91/299/9 87/300/9 

g Mesh8 Plate_1_1 Model

v -0.267492 0.23544 -1.61572
vt 53.975 -26.4286
vn 0.647431 0.645966 -0.404427
vt 50.7374 -26.4286
v 0.00141817 0.150163 -1.32144
vt 38.5398 -30.8267
v 0.382173 0.0654 -0.847295
vt 14.7659 -35.1983
v 0.867213 0.0654 -0.0708146
vt -21.2784 -35.1983
v 0.88784 4.4939e-14 -0.142253
vt -19.3233 -38.5713
v 0.424847 4.98119e-14 -0.88344
vt 15.0827 -38.5713
vt 40.5067 -32.7333
f 99/301/49 70/302/49 100/303/49 101/304/49 102/305/49 103/306/49 104/307/49 76/308/49 

v -0.644804 0.23544 -1.37217
vt 0.539484 63.668
vn 7.57381e-15 1 5.77681e-14
vt 17.1096 70.5107
vt 15.3943 73.2566
v -0.658507 0.23544 -1.45425
vt -7.02039e-14 66.8994
f 105/309/50 70/310/50 99/311/50 106/312/50 

v 0.00107924 0.0654 -1.00563
vt 42.7953 34.9026
vt 47.5535 46.8648
vt 42.7275 58.8995
vt 24.8002 58.8995
v -0.606855 0.0654 -0.754579
vt 16.9004 34.9026
f 107/313/36 100/314/36 70/315/36 105/316/36 108/317/36 

vt 5.08956 53.9497
vt 21.3367 53.9497
vt 0.331399 65.9119
f 107/318/35 101/319/35 100/320/35

v 0.663799 0.0654 0.21413
vt 52.0593 1.2151
vn -1.57494e-14 1 -4.15279e-14
vt 60.0677 12.4334
vt 40.9717 43.0035
vt 25.968 49.2371
vt 2.03356 39.3532
v -0.480574 0.0654 0.00182545
vt 7.00523 9.57355
f 109/321/51 102/322/51 101/323/51 107/324/51 108/325/51 110/326/51 

v 0.611396 7.99517e-14 0.244994
vt 29.0485 14.3863
vt 47.7806 14.3863
vt 45.0197 17.1388
vt 31.2362 17.1388
f 111/327/41 103/328/41 102/329/41 109/330/41 

v 0.00113703 0 -1.05948
vt -25.9702 51.3572
vn 1.6928e-14 -1 5.76337e-14
vt -42.6517 44.4265
vt -60.8798 15.2459
vt -49.9962 -2.02254e-25
v -0.499443 8.10346e-14 0.0389103
vt -6.26235 8.11352
v -0.638705 -3.06812e-14 -0.795252
vt -0.779599 40.9546
f 112/331/52 104/332/52 103/333/52 111/334/52 113/335/52 114/336/52 

vt -4.27823 53.616
vt 0.556675 66.1103
vt -22.3422 53.616
f 112/337/39 76/338/39 104/339/39

vt -25.5349 61.0735
vt -42.1902 61.0735
vt -48.4415 47.5804
vt -43.6066 35.0861
vt -16.3526 35.0861
f 106/340/38 99/341/38 76/342/38 112/343/38 114/344/38 

vt -6.97154 2.65615
vn -0.922648 0.353544 0.154034
vt -8.28932 5.40872
vt -38.4812 5.40872
vt -62.71 12.5654
vt -65.9861 12.5654
vt -40.2671 2.65615
f 113/345/53 110/346/53 108/347/53 105/348/53 106/349/53 114/350/53 

vt 4.67732 4.75008
vt 49.1574 4.75008
vt 50.9642 7.76634
vt 5.14141 7.76634
f 113/351/5 111/352/5 109/353/5 110/354/5 

g Mesh9 Plate_2_1 Model

v -0.480574 0.0654 0.00182545
vt -5.80728 17.8412
vn 0.922648 -0.353544 -0.154034
v -0.499443 8.10348e-14 0.0389103
vt -7.12505 15.0886
v -0.638705 -3.0681e-14 -0.795252
vt 26.1705 15.0886
v -0.658507 0.23544 -1.45425
vt 51.8896 24.9979
v -0.644804 0.23544 -1.37217
vt 48.6134 24.9979
v -0.606855 0.0654 -0.754579
vt 24.3846 17.8412
f 115/355/54 116/356/54 117/357/54 118/358/54 119/359/54 120/360/54 

v -1.03485 8.08544e-14 -0.0604185
vt 21.1043 4.11093
vt 42.5429 4.11093
vt 43.007 7.12718
v -0.969175 0.0654 -0.08882
vt 23.4425 7.12718
v -1.51694 0.23544 -0.295964
vt 0.751163 14.9694
v -1.59847 0.23544 -0.31109
vt -2.5135 14.9694
f 121/361/5 116/362/5 115/363/5 122/364/5 123/365/5 124/366/5 

v -0.748361 1.8075e-16 -0.749969
vt -33.469 31.0582
vn -3.0651e-14 -1 1.24516e-13
vt -37.7861 32.841
vt -43.2689 -7.12792e-25
vt -22.1899 3.91058
f 125/367/55 117/368/55 116/369/55 121/370/55 

v -1.21983 0.23544 -1.22245
vt -32.7334 40.8715
vt -56.6428 40.8715
vt -47.4605 14.8841
vt -42.7897 14.8841
f 126/371/38 118/372/38 117/373/38 125/374/38 

v -1.15783 0.23544 -1.16032
vt 17.3482 47.2136
vn 5.3845e-14 1 7.36437e-14
vt 37.546 55.5544
vt 37.0065 58.7859
vt 14.9072 49.6598
vt -4.99105e-13 13.7795
vt 3.20989 13.184
f 127/375/56 119/376/56 118/377/56 126/378/56 124/379/56 123/380/56 

v -0.710324 0.0654 -0.71185
vt 43.601 14.1368
vt 48.0083 14.1368
vt 55.908 38.1336
vt 34.0558 38.1336
f 128/381/36 120/382/36 119/383/36 127/384/36 

vt 24.7755 5.02875
vn -9.32854e-14 1 4.8833e-14
vt 44.0117 1.46003
vt 39.0401 31.2397
vt 34.9665 29.5575
f 122/385/57 115/386/57 120/387/57 128/388/57 

vt 50.2564 4.5969
vt 13.4066 4.5969
vt 14.1496 -19.3999
vt 40.7112 -19.3999
f 127/389/17 123/390/17 122/391/17 128/392/17 

vt -41.5225 -17.7421
vt -12.125 -17.7421
vt -12.725 8.24532
vt -51.5788 8.24532
f 125/393/18 121/394/18 124/395/18 126/396/18 

g Mesh10 Plate_8_1 Model

v 0.376666 0.23544 1.57064
vt 29.8435 15.6133
v 0.71304 0.159667 1.21701
vt 49.0243 12.4182
v 0.739958 0.203801 1.21505
vt 49.8519 14.2792
v 0.545342 0.23544 1.41325
vt 38.9264 15.6133
f 129/397/46 130/398/46 131/399/46 132/400/46 

v -0.00113703 -2.44152e-16 1.05948
vt 28.7023 -15.4877
v 0.497815 -6.14579e-15 0.853434
vt 49.9551 -15.4877
vt 52.3235 2.13604
vt 34.769 10.4997
v -0.00185336 0.23544 1.72695
vt 18.646 10.4997
f 133/401/27 134/402/27 130/403/27 129/404/27 135/405/27 

vt -20.2015 26.2784
vn -2.65693e-14 -1 -1.1949e-13
v -0.0945069 -1.90404e-14 1.02069
vt -16.5255 27.8057
v 0.343777 6.09901e-14 0.36891
vt -33.7808 53.4662
vt -39.8453 34.3905
f 133/406/58 136/407/58 137/408/58 134/409/58 

vt 18.6294 -3.92468
v -0.514255 0.23544 1.51406
vt -3.21574 -3.92468
vt 4.59245 -29.9121
vt 8.57307 -29.9121
f 135/410/20 138/411/20 136/412/20 133/413/20 

v -0.00175916 0.23544 1.63918
vt 20.177 3.45576
vn -2.16414e-14 1 -7.66062e-14
v -0.468099 0.23544 1.44542
vt 1.81716 11.0837
vt 2.006e-13 8.38143
vt 20.1733 -7.10085e-13
vt 35.0756 6.15402
vt 41.7164 12.3506
f 139/414/59 140/415/59 138/416/59 135/417/59 129/418/59 132/419/59 

v -0.00107924 0.0654 1.00563
vt -7.76175 -31.9096
v -0.0852926 0.0654 0.970641
vt -4.17149 -31.9096
vt 2.57446 -7.91276
vt -17.3069 -7.91276
f 141/420/24 142/421/24 140/422/24 139/423/24 

v 0.518764 0.0654 0.790956
vt 40.6701 36.8502
vn -7.85562e-14 1 4.1068e-14
v 0.363643 0.0654 0.303023
vt 34.5629 56.0602
vt 16.8883 29.776
vt 20.2038 28.3985
f 143/424/60 144/425/60 142/426/60 141/427/60 

vt 20.702 24.7355
vt 40.7186 24.7355
vt 42.9537 27.7312
vt 22.7963 27.7312
vt 4.24608 34.0709
vt 4.49353 32.0492
f 134/428/34 137/429/34 144/430/34 143/431/34 131/432/34 130/433/34 

vt -65.8071 3.22965
vn -0.792598 -0.296181 -0.532978
vt -63.2181 0.533898
vt -32.2955 0.533898
vt -6.95517 10.2386
vt -10.2116 10.2386
vt -34.133 3.22965
f 144/434/61 137/435/61 136/436/61 138/437/61 140/438/61 142/439/61 

vt -43.2722 6.91422
vt -53.3325 2.4492
vt -51.6563 -17.0826
vt -29.5136 -17.0826
vt -19.9684 6.91422
f 132/440/30 131/441/30 143/442/30 141/443/30 139/444/30 

