# Alias OBJ Model File
# Exported from SketchUp, (c) 2000-2012 Trimble Navigation Limited
# File units = meters

mtllib Plate.mtl

g Mesh1 Model

usemtl FrontColor
v -0.749165 0 0.749165
vt 29.4947 -29.4947
vn 0 -1 -0
v -1.05948 0 5.77529e-15
vt 41.7118 -2.27374e-13
v -0.749165 0 -0.749165
vt 29.4947 29.4947
v 0 0 -1.05948
vt 0 41.7118
v 0.749165 0 -0.749165
vt -29.4947 29.4947
v 1.05948 0 2.88765e-15
vt -41.7118 -1.13687e-13
v 0.749165 0 0.749165
vt -29.4947 -29.4947
v 1.80478e-15 0 1.05948
vt -7.10543e-14 -41.7118
f 1/1/1 2/2/1 3/3/1 4/4/1 5/5/1 6/6/1 7/7/1 8/8/1 

vt -15.9624 36.0019
vn -0.329533 -0.934225 0.136497
vt 15.9624 36.0019
v -1.22114 0.23544 1.22114
vt 26.0187 61.9894
v -1.72695 0.23544 -0
vt -26.0187 61.9894
f 2/9/2 1/10/2 9/11/2 10/12/2 

vn -0.136497 -0.934225 0.329533
v 1.6243e-15 0.23544 1.72695
f 9/12/3 1/9/3 8/10/3 11/11/3 

vn 0.136497 -0.934225 0.329533
v 1.22114 0.23544 1.22114
f 11/12/4 8/9/4 7/10/4 12/11/4 

v 1.72695 0.23544 -0
vn 0.329533 -0.934225 0.136497
f 13/11/5 12/12/5 7/9/5 6/10/5 

v 1.63918 0.23544 1.44382e-15
vt 64.5345 -8.78419e-14
vn 3.34421e-15 1 -3.34421e-15
vt 48.0764 -48.0764
vt 67.9903 -3.09985e-14
f 14/13/6 12/14/6 13/15/6

v 1.15907 0.23544 1.15907
vt 45.6328 -45.6328
f 15/16/6 12/14/6 14/13/6

vt 3.29504e-14 -67.9903
f 15/16/6 11/17/6 12/14/6

v 9.02389e-16 0.23544 1.63918
vt 4.52868e-15 -64.5345
f 16/18/6 11/17/6 15/16/6

v -1.15907 0.23544 1.15907
vt -45.6328 -45.6328
f 17/19/6 11/17/6 16/18/6

vt -48.0764 -48.0764
f 17/19/6 9/20/6 11/17/6

v -1.63918 0.23544 2.88765e-15
vt -64.5345 -1.44685e-13
f 18/21/6 9/20/6 17/19/6

vt -67.9903 -3.09985e-14
f 9/20/6 18/21/6 10/22/6

v -1.22114 0.23544 -1.22114
vt -48.0764 48.0764
f 18/21/6 19/23/6 10/22/6

v -1.15907 0.23544 -1.15907
vt -45.6328 45.6328
f 19/23/6 18/21/6 20/24/6

vt 24.6963 59.8409
vn 0.257738 0.960299 0.106759
vt -24.6963 59.8409
v -1.00563 0.0654 -0
vt -15.1511 35.8441
v -0.711087 0.0654 -0.711087
vt 15.1511 35.8441
f 20/25/7 18/26/7 21/27/7 22/28/7 

vn 0.257738 0.960299 -0.106759
v -0.711087 0.0654 0.711087
f 18/25/8 17/26/8 23/27/8 21/28/8 

vn 0.106759 0.960299 -0.257738
v 5.05338e-15 0.0654 1.00563
f 16/26/9 24/27/9 23/28/9 17/25/9 

vn -0.106759 0.960299 -0.257738
v 0.711087 0.0654 0.711087
f 15/26/10 25/27/10 24/28/10 16/25/10 

v 1.00563 0.0654 -4.33147e-15
vn -0.257738 0.960299 -0.106759
f 26/27/11 25/28/11 15/25/11 14/26/11 

vt -27.9956 -27.9956
vn 0 1 -0
vt 1.98952e-13 -39.5917
vt 27.9956 -27.9956
vt 39.5917 1.7053e-13
v 0.711087 0.0654 -0.711087
vt 27.9956 27.9956
v 3.60956e-15 0.0654 -1.00563
vt 1.42109e-13 39.5917
vt -27.9956 27.9956
vt -39.5917 0
f 23/29/12 24/30/12 25/31/12 26/32/12 27/33/12 28/34/12 22/35/12 21/36/12 

vn -0.257738 0.960299 0.106759
v 1.15907 0.23544 -1.15907
f 27/27/13 26/28/13 14/25/13 29/26/13 

v 1.22114 0.23544 -1.22114
vt 48.0764 48.0764
vt 45.6328 45.6328
f 30/37/6 29/38/6 14/13/6

v 7.21911e-16 0.23544 -1.72695
vt -2.57675e-15 67.9903
f 31/39/6 29/38/6 30/37/6

v 1.80478e-16 0.23544 -1.63918
vt -2.3893e-14 64.5345
f 31/39/6 32/40/6 29/38/6

f 31/39/6 20/24/6 32/40/6

f 19/23/6 20/24/6 31/39/6

vn -0.136497 -0.934225 -0.329533
f 31/12/14 4/9/14 3/10/14 19/11/14 

vn 0.136497 -0.934225 -0.329533
f 30/12/15 5/9/15 4/10/15 31/11/15 

vn 0.329533 -0.934225 -0.136497
f 30/11/16 13/12/16 6/9/16 5/10/16 

f 30/37/6 14/13/6 13/15/6

vn -0.329533 -0.934225 -0.136497
f 3/9/17 2/10/17 10/11/17 19/12/17 

vn 0.106759 0.960299 0.257738
f 20/26/18 22/27/18 28/28/18 32/25/18 

vn -0.106759 0.960299 0.257738
f 32/26/19 28/27/19 27/28/19 29/25/19 

